<?xml version="1.0" encoding="utf-8"?>
<!-- Generator: Adobe Illustrator 26.0.3, SVG Export Plug-In . SVG Version: 6.00 Build 0)  -->
<svg version="1.1" id="Layer_1" xmlns="http://www.w3.org/2000/svg" xmlns:xlink="http://www.w3.org/1999/xlink" x="0px" y="0px"
	 viewBox="0 0 1247 727.3" style="enable-background:new 0 0 1247 727.3;" xml:space="preserve">
<style type="text/css">
	.st0{fill:url(#SVGID_1_);}
	.st1{opacity:0.55;fill:#9881B7;enable-background:new    ;}
	.st2{fill:#FFFFFF;}
	.st3{fill:#292C3D;}
	.st4{fill:#0254E4;}
	.st5{opacity:0.65;fill:#00A1CC;enable-background:new    ;}
	.st6{fill:#F9A57E;}
	.st7{fill:#E76F59;}
	.st8{fill:#E8A393;}
	.st9{fill:#4D505E;}
	.st10{fill:#3D3848;}
	.st11{opacity:0.32;fill:#CA0045;enable-background:new    ;}
	.st12{fill:#DA395B;}
	.st13{fill:#FF4C6B;}
	.st14{fill:#D8D8D8;}
	.st15{fill:#AFEAF0;}
	.st16{fill:#7695A8;}
	.st17{fill:#5AC4E0;}
	.st18{fill:#FFB089;}
	.st19{opacity:0.55;fill:#ABACB3;enable-background:new    ;}
	.st20{fill:#3F6A85;}
	.st21{fill:#5B5D6A;}
	.st22{fill:#273137;}
	.st23{fill:#F8F2ED;}
	.st24{fill:#48525B;}
	.st25{fill:#B6B6B6;}
	.st26{fill:#FFF9FD;}
	.st27{fill:#8494AB;}
	.st28{fill:#B3B2DA;}
	.st29{fill:#F4F2F2;}
	.st30{font-family:'CooperBlack';}
	.st31{font-size:72px;}
	.st32{fill:none;}
</style>
<linearGradient id="SVGID_1_" gradientUnits="userSpaceOnUse" x1="624.3279" y1="1292.4974" x2="624.3279" y2="132.0816" gradientTransform="matrix(1 0 0 -1 0 454.5956)">
	<stop  offset="0" style="stop-color:#00C9FF"/>
	<stop  offset="1" style="stop-color:#D190E2"/>
</linearGradient>
<rect x="0.8" y="-246.7" class="st0" width="1247" height="975"/>
<ellipse class="st1" cx="606" cy="321.7" rx="467.8" ry="16.7"/>
<g>
	<g>
		<path class="st2" d="M329.2,162.8h-1v-4h1V162.8z M329.2,154.8h-1v-4h1V154.8z M329.2,146.8h-1v-4h1V146.8z M329.2,138.8h-1v-4h1
			V138.8z M329.2,130.8h-1v-4h1V130.8z M329.2,122.8h-1v-4h1V122.8z M329.2,114.8h-1v-4h1V114.8z M329.2,106.8h-1v-4h1V106.8z
			 M329.2,98.8h-1v-4h1V98.8z M329.2,90.8h-1v-4h1V90.8z M329.2,82.8h-1v-4h1V82.8z M373.2,75.7h-4v-1h4V75.7z M365.2,75.7h-4v-1h4
			V75.7z M357.2,75.7h-4v-1h4V75.7z M349.2,75.7h-4v-1h4V75.7z M341.2,75.7h-4v-1h4V75.7z M333.2,75.7h-4v-1h4V75.7z"/>
	</g>
	<g>
		<circle class="st2" cx="328.7" cy="162.7" r="1.9"/>
		<path class="st2" d="M330.8,162.7c0-1.2-1-2.1-2.1-2.1c-1.2,0-2.1,1-2.1,2.1s1,2.1,2.1,2.1C329.9,164.8,330.8,163.8,330.8,162.7
			S330.8,163.8,330.8,162.7z M327.1,162.7c0-0.9,0.7-1.6,1.6-1.6s1.6,0.7,1.6,1.6c0,0.9-0.7,1.6-1.6,1.6
			C327.8,164.3,327.1,163.6,327.1,162.7S327.1,163.6,327.1,162.7z"/>
	</g>
	<g>
		<path class="st2" d="M376.6,77.1c1,0,1.9-0.8,1.9-1.9s-0.8-1.9-1.9-1.9s-1.9,0.8-1.9,1.9C374.8,76.3,375.6,77.1,376.6,77.1z"/>
		<path class="st2" d="M376.6,77.4c-1.2,0-2.1-1-2.1-2.1s1-2.1,2.1-2.1s2.1,1,2.1,2.1S377.8,77.4,376.6,77.4
			C375.5,77.4,377.8,77.4,376.6,77.4z M376.6,73.6c-0.9,0-1.6,0.7-1.6,1.6c0,0.9,0.7,1.6,1.6,1.6s1.6-0.7,1.6-1.6
			S377.5,73.6,376.6,73.6S377.5,73.6,376.6,73.6z"/>
	</g>
	<g>
		<path class="st2" d="M251,374c-0.9,0-1.6,0.3-1.6,1c0,2.5,7.9,1.1,7.9,6.5c0,3.1-2.7,4.6-6.1,4.6c-2.5,0-5.1-0.9-6.9-2.4l1.5-3.1
			c1.5,1.3,3.9,2.3,5.4,2.3c1.2,0,1.9-0.4,1.9-1.2c0-2.5-7.9-1-7.9-6.3c0-2.8,2.4-4.6,6-4.6c2.2,0,4.4,0.7,6,1.7l-1.5,3.1
			C254.3,374.7,252.3,374,251,374z M585.4,197.9c-8.8,0-14.6,3.2-14.6,9.5c0,23,73.6,9.9,73.6,59.8c0,28.3-25.1,42.8-56.2,42.8
			c-23.3,0-47.7-8.5-64.4-22.2l14.2-28.3c14.4,12.3,36.1,21,50.7,21c10.8,0,17.5-4,17.5-11.3c0-23.5-73.6-9.3-73.6-58.4
			c0-25.9,22.1-42.4,55.9-42.4c20.5,0,41.3,6.3,55.8,15.6l-13.8,28.7C615.7,204.4,597,197.9,585.4,197.9z"/>
		<path class="st2" d="M266.5,374.2c-2.3,0-4.1,1.8-4.1,4.2c0,2.4,1.8,4.3,4.1,4.3c1.2,0,2.7-0.7,3.7-1.8l2.3,2.5
			c-1.6,1.7-4,2.8-6.2,2.8c-4.5,0-7.9-3.3-7.9-7.7c0-4.3,3.4-7.6,8-7.6c2.2,0,4.6,1,6.1,2.6l-2.3,2.7
			C269.3,374.9,267.8,374.2,266.5,374.2z"/>
		<path class="st2" d="M278.1,370.9v6.1h6.1v-6.1h3.9v15h-3.9v-5.8h-6.1v5.8h-3.9v-15H278.1z"/>
		<path class="st2" d="M306.3,378.5c0,4.4-3.5,7.7-8.1,7.7c-4.7,0-8.1-3.3-8.1-7.7c0-4.4,3.5-7.6,8.1-7.6
			C302.9,370.8,306.3,374.1,306.3,378.5z M294.1,378.5c0,2.5,1.9,4.3,4.1,4.3c2.2,0,4-1.9,4-4.3c0-2.5-1.8-4.3-4-4.3
			C296,374.2,294.1,376,294.1,378.5z"/>
		<path class="st2" d="M323.3,378.5c0,4.4-3.5,7.7-8.1,7.7c-4.7,0-8.1-3.3-8.1-7.7c0-4.4,3.5-7.6,8.1-7.6
			C319.9,370.8,323.3,374.1,323.3,378.5z M311.1,378.5c0,2.5,1.9,4.3,4.1,4.3c2.2,0,4.1-1.9,4.1-4.3c0-2.5-1.8-4.3-4.1-4.3
			C313,374.2,311.1,376,311.1,378.5z"/>
		<path class="st2" d="M329.2,370.9v11.7h6.4v3.4h-10.3v-15H329.2z"/>
	</g>
</g>
<g>
	<g>
		<path class="st2" d="M564.1,162.8h-1V159h1V162.8z M564.1,155h-1v-4h1V155z M564.1,147h-1v-4h1V147z M564.1,139h-1v-4h1V139z
			 M564.1,131h-1v-4h1V131z M564.1,123h-1v-4h1V123z M564.1,115h-1v-4h1V115z M564.1,107h-1v-4h1V107z M564.1,99h-1v-4h1V99z
			 M564.1,91h-1v-4h1V91z M562,85.1h-4v-1h4V85.1z M554,85.1h-4v-1h4V85.1z M546,85.1h-4v-1h4V85.1z"/>
	</g>
	<g>
		<path class="st2" d="M542.1,86.5c-1,0-1.9-0.8-1.9-1.9s0.8-1.9,1.9-1.9c1,0,1.9,0.8,1.9,1.9S543.1,86.5,542.1,86.5z"/>
		<path class="st2" d="M542.1,86.8c1.2,0,2.1-1,2.1-2.1s-1-2.1-2.1-2.1c-1.2,0-2.1,1-2.1,2.1S540.9,86.8,542.1,86.8
			C543.3,86.8,540.9,86.8,542.1,86.8z M542.1,83c0.9,0,1.6,0.7,1.6,1.6c0,0.9-0.7,1.6-1.6,1.6c-0.9,0-1.6-0.7-1.6-1.6
			C540.5,83.7,541.2,83,542.1,83C543,83,541.2,83,542.1,83z"/>
	</g>
	<g>
		<path class="st2" d="M561.8,162.7c0,1,0.8,1.9,1.9,1.9c1,0,1.9-0.8,1.9-1.9s-0.8-1.9-1.9-1.9C562.6,160.8,561.8,161.6,561.8,162.7
			z"/>
		<path class="st2" d="M561.5,162.7c0-1.2,1-2.1,2.1-2.1c1.2,0,2.1,1,2.1,2.1s-1,2.1-2.1,2.1C562.5,164.8,561.5,163.8,561.5,162.7
			S561.5,163.8,561.5,162.7z M565.3,162.7c0-0.9-0.7-1.6-1.6-1.6c-0.9,0-1.6,0.7-1.6,1.6c0,0.9,0.7,1.6,1.6,1.6
			C564.5,164.3,565.3,163.6,565.3,162.7C565.3,161.8,565.3,163.6,565.3,162.7z"/>
	</g>
</g>
<g>
	<g>
		<path class="st2" d="M908.4,145.5h-1v-4h1V145.5z M908.4,137.5h-1v-4h1V137.5z M908.4,129.5h-1v-4h1V129.5z M908.4,121.5h-1v-4h1
			V121.5z M908.4,113.5h-1v-4h1V113.5z M908.4,105.5h-1v-4h1V105.5z"/>
	</g>
	<g>
		<path class="st2" d="M909.8,145.4c0,1-0.8,1.9-1.9,1.9s-1.9-0.8-1.9-1.9s0.8-1.9,1.9-1.9C908.9,143.5,909.8,144.4,909.8,145.4z"/>
		<path class="st2" d="M910,145.4c0-1.2-1-2.1-2.1-2.1s-2.1,1-2.1,2.1s1,2.1,2.1,2.1S910,146.6,910,145.4S910,146.6,910,145.4z
			 M906.2,145.4c0-0.9,0.7-1.6,1.6-1.6s1.6,0.7,1.6,1.6s-0.7,1.6-1.6,1.6S906.2,146.3,906.2,145.4S906.2,146.3,906.2,145.4z"/>
	</g>
	<g>
		<path class="st2" d="M909.8,101.5c0-1-0.8-1.9-1.9-1.9s-1.9,0.8-1.9,1.9s0.8,1.9,1.9,1.9C908.9,103.4,909.8,102.5,909.8,101.5z"/>
		<path class="st2" d="M910,101.5c0,1.2-1,2.1-2.1,2.1s-2.1-1-2.1-2.1s1-2.1,2.1-2.1S910,100.3,910,101.5
			C910,102.7,910,100.3,910,101.5z M906.2,101.5c0,0.9,0.7,1.6,1.6,1.6s1.6-0.7,1.6-1.6c0-0.9-0.7-1.6-1.6-1.6
			S906.2,100.6,906.2,101.5C906.2,102.4,906.2,100.6,906.2,101.5z"/>
	</g>
	<g>
		<path class="st2" d="M391.6,68.8v15.1h8.2v4.3h-13.3V68.8H391.6z"/>
		<path class="st2" d="M417.4,68.8v4h-10.2v3.6h9.2v4l-9.2,0v3.7h10.5v4h-15.6V68.8H417.4z"/>
		<path class="st2" d="M433.7,84.8h-8.4l-1.4,3.4h-5.2l8.3-19.4h5.2l8.1,19.4h-5.4L433.7,84.8z M432.2,80.9l-2.7-6.9l-2.7,6.9H432.2
			z"/>
		<path class="st2" d="M453.9,88.2l-2.8-5.4h-0.1h-3.6v5.4h-5.1V68.8h8.7c5.1,0,8.1,2.5,8.1,6.8c0,2.9-1.2,5.1-3.5,6.3l4,6.3H453.9z
			 M447.3,78.8h3.7c2,0,3.2-1.1,3.2-3c0-1.9-1.2-2.9-3.2-2.9h-3.7V78.8z"/>
		<path class="st2" d="M466.7,68.8l8.8,11.7V68.8h4.7v19.4h-4.4L467,76.6v11.6h-4.7V68.8H466.7z"/>
		<path class="st2" d="M489.1,68.8v19.4H484V68.8H489.1z"/>
		<path class="st2" d="M497.3,68.8l8.8,11.7V68.8h4.7v19.4h-4.4l-8.8-11.6v11.6h-4.7V68.8H497.3z"/>
		<path class="st2" d="M527.4,78.3h4.4v7.6c-2.1,1.4-5.4,2.5-8.1,2.5c-5.9,0-10.4-4.3-10.4-9.9c0-5.7,4.6-9.8,10.7-9.8
			c2.9,0,6,1.1,8,2.9l-2.9,3.5c-1.4-1.3-3.4-2.1-5.1-2.1c-3.1,0-5.5,2.4-5.5,5.6c0,3.2,2.4,5.6,5.5,5.6c1,0,2.2-0.3,3.3-0.9V78.3z"
			/>
		<path class="st2" d="M215.7,315.5l-20.4-38.8h-0.8h-26.4v38.8h-36.6V175.3h63c37.2,0,58.4,18,58.4,49.2c0,21.2-8.8,36.8-25,45.2
			l29.2,45.8H215.7z M168.1,247.5h26.6c14.8,0,23.4-7.6,23.4-21.8c0-13.8-8.6-21.2-23.4-21.2h-26.6V247.5z"/>
	</g>
	<g>
		<path class="st2" d="M480.6,369.9v5.4h-7.5V395h-6.6v-19.7h-7.5v-5.4H480.6z"/>
		<path class="st2" d="M503.1,369.9v5.2h-13.3v4.7h12v5.2l-12,0v4.7h13.6v5.2h-20.2v-25.1L503.1,369.9L503.1,369.9z"/>
		<path class="st2" d="M524.3,390.6h-10.9l-1.8,4.5h-6.7l10.8-25.1h6.7L533,395h-7L524.3,390.6z M522.3,385.6l-3.4-9l-3.5,9H522.3z"
			/>
		<path class="st2" d="M546.5,375.3c-3.9,0-6.8,3-6.8,7.1c0,4,2.9,7.1,6.8,7.1c2.1,0,4.5-1.1,6.2-2.9l3.8,4.1
			c-2.7,2.8-6.7,4.7-10.4,4.7c-7.6,0-13.2-5.5-13.2-12.9c0-7.2,5.8-12.7,13.5-12.7c3.7,0,7.6,1.6,10.2,4.3l-3.8,4.5
			C551.1,376.6,548.7,375.3,546.5,375.3z"/>
		<path class="st2" d="M565.9,369.9v10.3h10.1v-10.3h6.6V395h-6.6v-9.6h-10.1v9.6h-6.6v-25.1H565.9z"/>
		<path class="st2" d="M594.1,369.9V395h-6.6v-25.1H594.1z"/>
		<path class="st2" d="M604.7,369.9l11.4,15.1v-15.1h6.1V395h-5.7L605.1,380V395H599v-25.1H604.7z"/>
		<path class="st2" d="M643.8,382.2h5.7v9.9c-2.7,1.9-7,3.2-10.5,3.2c-7.7,0-13.5-5.5-13.5-12.8c0-7.3,5.9-12.8,13.9-12.8
			c3.8,0,7.8,1.4,10.3,3.7l-3.7,4.6c-1.8-1.7-4.3-2.8-6.6-2.8c-4,0-7.1,3.1-7.1,7.2c0,4.1,3.1,7.2,7.2,7.2c1.3,0,2.8-0.4,4.3-1.2
			L643.8,382.2L643.8,382.2z"/>
		<path class="st2" d="M803,180v57.9h50.6V180h32.7v141.9h-32.7v-54.5H803v54.5h-32.7V180H803z"/>
	</g>
</g>
<g>
	<g>
		<path class="st2" d="M684.4,150.1h-1v-2.4h1V150.1z M684.4,143.7h-1v-4h1V143.7z M684.4,135.7h-1v-4h1V135.7z M684.4,127.7h-1v-4
			h1V127.7z M684.4,119.7h-1v-4h1V119.7z M684.4,111.7h-1v-4h1V111.7z M684.4,103.7h-1v-4h1V103.7z M684.4,95.7h-1v-4h1V95.7z
			 M807.7,88h-4v-1h4V88z M799.7,88h-4v-1h4V88z M791.7,88h-4v-1h4V88z M783.7,88h-4v-1h4V88z M775.7,88h-4v-1h4V88z M767.7,88h-4
			v-1h4V88z M759.7,88h-4v-1h4V88z M751.7,88h-4v-1h4V88z M743.7,88h-4v-1h4V88z M735.7,88h-4v-1h4V88z M727.7,88h-4v-1h4V88z
			 M719.7,88h-4v-1h4V88z M711.7,88h-4v-1h4V88z M703.7,88h-4v-1h4V88z M695.7,88h-4v-1h4V88z M687.7,88h-3.8v-0.3h-0.5V87h4.3V88z"
			/>
	</g>
	<g>
		<path class="st2" d="M807.6,85.6c1,0,1.9,0.8,1.9,1.9s-0.8,1.9-1.9,1.9s-1.9-0.8-1.9-1.9C805.7,86.5,806.6,85.6,807.6,85.6z"/>
		<path class="st2" d="M807.6,85.4c-1.2,0-2.1,1-2.1,2.1s1,2.1,2.1,2.1s2.1-1,2.1-2.1C809.7,86.3,808.8,85.4,807.6,85.4
			C806.4,85.4,808.8,85.4,807.6,85.4z M807.6,89.1c-0.9,0-1.6-0.7-1.6-1.6c0-0.9,0.7-1.6,1.6-1.6s1.6,0.7,1.6,1.6
			C809.2,88.4,808.5,89.1,807.6,89.1C806.7,89.1,808.5,89.1,807.6,89.1z"/>
	</g>
	<g>
		<circle class="st2" cx="683.9" cy="150" r="1.9"/>
		<path class="st2" d="M681.8,150c0-1.2,1-2.1,2.1-2.1s2.1,1,2.1,2.1s-1,2.1-2.1,2.1S681.8,151.2,681.8,150S681.8,151.2,681.8,150z
			 M685.6,150c0-0.9-0.7-1.6-1.6-1.6s-1.6,0.7-1.6,1.6s0.7,1.6,1.6,1.6S685.6,150.9,685.6,150S685.6,150.9,685.6,150z"/>
	</g>
</g>
<g>
	<g>
		<path class="st2" d="M756.4,391.8h-4v-1h4V391.8z M748.4,391.8h-4v-1h4V391.8z M740.4,391.8h-4v-1h4V391.8z M732.4,391.8h-4v-1h4
			V391.8z M724.4,391.8h-4v-1h4V391.8z M716.4,391.8h-4v-1h4V391.8z M708.4,391.8h-4v-1h4V391.8z M700.4,391.8h-4v-1h4V391.8z
			 M695.5,388.8h-1v-4h1V388.8z M695.5,380.8h-1v-4h1V380.8z M695.5,372.8h-1v-4h1V372.8z M695.5,364.8h-1v-4h1V364.8z"/>
	</g>
	<g>
		<path class="st2" d="M693.1,360.9c0-1,0.8-1.9,1.9-1.9s1.9,0.8,1.9,1.9s-0.8,1.9-1.9,1.9S693.1,361.9,693.1,360.9z"/>
		<path class="st2" d="M692.8,360.9c0,1.2,1,2.1,2.1,2.1s2.1-1,2.1-2.1s-1-2.1-2.1-2.1C693.8,358.8,692.8,359.7,692.8,360.9
			C692.8,362.1,692.8,359.7,692.8,360.9z M696.6,360.9c0,0.9-0.7,1.6-1.6,1.6s-1.6-0.7-1.6-1.6s0.7-1.6,1.6-1.6
			C695.9,359.3,696.6,360,696.6,360.9S696.6,360,696.6,360.9z"/>
	</g>
	<g>
		<path class="st2" d="M757.6,393.2c1,0,1.9-0.8,1.9-1.9s-0.8-1.9-1.9-1.9s-1.9,0.8-1.9,1.9C755.8,392.4,756.6,393.2,757.6,393.2z"
			/>
		<path class="st2" d="M757.6,393.5c-1.2,0-2.1-1-2.1-2.1s1-2.1,2.1-2.1s2.1,1,2.1,2.1S758.8,393.5,757.6,393.5
			C756.5,393.5,758.8,393.5,757.6,393.5z M757.6,389.7c-0.9,0-1.6,0.7-1.6,1.6s0.7,1.6,1.6,1.6s1.6-0.7,1.6-1.6
			C759.3,390.4,758.5,389.7,757.6,389.7C756.7,389.7,758.5,389.7,757.6,389.7z"/>
	</g>
</g>
<g>
	<g>
		<path class="st2" d="M990.6,376.2h-4v-1h4V376.2z M982.6,376.2h-4v-1h4V376.2z M993.8,374.4h-1v-4h1V374.4z M993.8,366.4h-1v-4h1
			V366.4z"/>
	</g>
	<g>
		<path class="st2" d="M972.8,377.6c-1,0-1.9-0.8-1.9-1.9s0.8-1.9,1.9-1.9s1.9,0.8,1.9,1.9C974.6,376.8,973.8,377.6,972.8,377.6z"/>
		<path class="st2" d="M972.8,377.9c1.2,0,2.1-1,2.1-2.1s-1-2.1-2.1-2.1s-2.1,1-2.1,2.1C970.6,376.9,971.6,377.9,972.8,377.9
			C973.9,377.9,971.6,377.9,972.8,377.9z M972.8,374.1c0.9,0,1.6,0.7,1.6,1.6s-0.7,1.6-1.6,1.6s-1.6-0.7-1.6-1.6
			S971.9,374.1,972.8,374.1S971.9,374.1,972.8,374.1z"/>
	</g>
	<g>
		<path class="st2" d="M995.1,361.6c0-1-0.8-1.9-1.9-1.9s-1.9,0.8-1.9,1.9s0.8,1.9,1.9,1.9S995.1,362.6,995.1,361.6z"/>
		<path class="st2" d="M995.4,361.6c0,1.2-1,2.1-2.1,2.1s-2.1-1-2.1-2.1s1-2.1,2.1-2.1S995.4,360.4,995.4,361.6
			C995.4,362.7,995.4,360.4,995.4,361.6z M991.6,361.6c0,0.9,0.7,1.6,1.6,1.6s1.6-0.7,1.6-1.6s-0.7-1.6-1.6-1.6
			S991.6,360.7,991.6,361.6S991.6,360.7,991.6,361.6z"/>
	</g>
</g>
<g>
	<g>
		<path class="st2" d="M233.6,375.8h-1.7v-1h1.7V375.8z M227.9,375.8h-4v-1h4V375.8z M219.9,375.8h-4v-1h4V375.8z M211.9,375.8h-4
			v-1h4V375.8z M207,372.6h-1v-4h1V372.6z M207,364.6h-1v-4h1V364.6z M207,356.6h-1v-4h1V356.6z M207,348.6h-1v-4h1V348.6z"/>
	</g>
	<g>
		<path class="st2" d="M204.7,344.8c0-1,0.8-1.9,1.9-1.9c1,0,1.9,0.8,1.9,1.9s-0.8,1.9-1.9,1.9C205.5,346.6,204.7,345.8,204.7,344.8
			z"/>
		<path class="st2" d="M204.4,344.8c0,1.2,1,2.1,2.1,2.1s2.1-1,2.1-2.1s-1-2.1-2.1-2.1S204.4,343.6,204.4,344.8
			C204.4,345.9,204.4,343.6,204.4,344.8z M208.2,344.8c0,0.9-0.7,1.6-1.6,1.6s-1.6-0.7-1.6-1.6s0.7-1.6,1.6-1.6
			S208.2,343.9,208.2,344.8S208.2,343.9,208.2,344.8z"/>
	</g>
	<g>
		<path class="st2" d="M233.5,377.2c1,0,1.9-0.8,1.9-1.9s-0.8-1.9-1.9-1.9c-1,0-1.9,0.8-1.9,1.9S232.4,377.2,233.5,377.2z"/>
		<path class="st2" d="M233.5,377.4c-1.2,0-2.1-1-2.1-2.1s1-2.1,2.1-2.1s2.1,1,2.1,2.1C235.6,376.5,234.6,377.4,233.5,377.4
			S234.6,377.4,233.5,377.4z M233.5,373.7c-0.9,0-1.6,0.7-1.6,1.6s0.7,1.6,1.6,1.6c0.9,0,1.6-0.7,1.6-1.6
			C235.1,374.4,234.4,373.7,233.5,373.7C232.6,373.7,234.4,373.7,233.5,373.7z"/>
	</g>
</g>
<g>
	<g>
		<path class="st2" d="M399.3,379.8h-2.6v-1h1.6v-1.4h1V379.8z M392.7,379.8h-4v-1h4V379.8z M384.7,379.8h-4v-1h4V379.8z
			 M376.7,379.8h-4v-1h4V379.8z M368.7,379.8h-4v-1h4V379.8z M360.7,379.8h-4v-1h4V379.8z M352.7,379.8h-4v-1h4V379.8z M399.3,373.4
			h-1v-4h1V373.4z M399.3,365.4h-1v-4h1V365.4z M399.3,357.4h-1v-4h1V357.4z"/>
	</g>
	<g>
		<path class="st2" d="M339.7,381.2c-1,0-1.9-0.8-1.9-1.9s0.8-1.9,1.9-1.9s1.9,0.8,1.9,1.9C341.6,380.3,340.8,381.2,339.7,381.2z"/>
		<path class="st2" d="M339.7,381.4c1.2,0,2.1-1,2.1-2.1s-1-2.1-2.1-2.1s-2.1,1-2.1,2.1C337.6,380.5,338.5,381.4,339.7,381.4
			C340.9,381.4,338.5,381.4,339.7,381.4z M339.7,377.7c0.9,0,1.6,0.7,1.6,1.6s-0.7,1.6-1.6,1.6s-1.6-0.7-1.6-1.6
			C338.1,378.4,338.8,377.7,339.7,377.7S338.8,377.7,339.7,377.7z"/>
	</g>
	<g>
		<path class="st2" d="M400.7,352.8c0-1-0.8-1.9-1.9-1.9s-1.9,0.8-1.9,1.9s0.8,1.9,1.9,1.9C399.9,354.6,400.7,353.8,400.7,352.8z"/>
		<path class="st2" d="M401,352.8c0,1.2-1,2.1-2.1,2.1s-2.1-1-2.1-2.1s1-2.1,2.1-2.1C400,350.6,401,351.6,401,352.8
			S401,351.6,401,352.8z M397.2,352.8c0,0.9,0.7,1.6,1.6,1.6s1.6-0.7,1.6-1.6s-0.7-1.6-1.6-1.6S397.2,351.9,397.2,352.8
			S397.2,351.9,397.2,352.8z"/>
	</g>
</g>
<g>
	<g>
		<path class="st2" d="M451.1,385.2h-3v-1h3V385.2z M444.1,385.2h-4v-1h4V385.2z M436.1,385.2h-4v-1h4V385.2z M428.1,385.2h-4v-1h4
			V385.2z M420.1,385.2h-3.9V384h1v0.1h2.9V385.2z M417.2,380h-1v-4h1V380z M417.2,372h-1v-4h1V372z M417.2,364h-1v-4h1V364z"/>
	</g>
	<g>
		<circle class="st2" cx="416.7" cy="360.1" r="1.9"/>
		<path class="st2" d="M414.6,360.1c0,1.2,1,2.1,2.1,2.1s2.1-1,2.1-2.1s-1-2.1-2.1-2.1C415.5,358,414.6,359,414.6,360.1
			C414.6,361.3,414.6,359,414.6,360.1z M418.4,360.1c0,0.9-0.7,1.6-1.6,1.6s-1.6-0.7-1.6-1.6s0.7-1.6,1.6-1.6
			C417.6,358.5,418.4,359.2,418.4,360.1S418.4,359.2,418.4,360.1z"/>
	</g>
	<g>
		<path class="st2" d="M451,386.6c1,0,1.9-0.8,1.9-1.9s-0.8-1.9-1.9-1.9s-1.9,0.8-1.9,1.9S449.9,386.6,451,386.6z"/>
		<path class="st2" d="M451,386.8c-1.2,0-2.1-1-2.1-2.1s1-2.1,2.1-2.1s2.1,1,2.1,2.1S452.1,386.8,451,386.8S452.1,386.8,451,386.8z
			 M451,383.1c-0.9,0-1.6,0.7-1.6,1.6s0.7,1.6,1.6,1.6s1.6-0.7,1.6-1.6C452.6,383.8,451.9,383.1,451,383.1S451.9,383.1,451,383.1z"
			/>
	</g>
</g>
<g>
	<g>
		<path class="st2" d="M675.9,378.4h-2.5v-1h1.5v-1.5h1V378.4z M669.4,378.4h-4v-1h4V378.4z M675.9,371.8h-1v-4h1V371.8z
			 M675.9,363.8h-1v-4h1V363.8z"/>
	</g>
	<g>
		<path class="st2" d="M659.1,379.8c-1,0-1.9-0.8-1.9-1.9s0.8-1.9,1.9-1.9s1.9,0.8,1.9,1.9S660.2,379.8,659.1,379.8z"/>
		<path class="st2" d="M659.1,380c1.2,0,2.1-1,2.1-2.1s-1-2.1-2.1-2.1s-2.1,1-2.1,2.1S657.9,380,659.1,380
			C660.3,380,657.9,380,659.1,380z M659.1,376.3c0.9,0,1.6,0.7,1.6,1.6s-0.7,1.6-1.6,1.6s-1.6-0.7-1.6-1.6S658.2,376.3,659.1,376.3
			C660,376.3,658.2,376.3,659.1,376.3z"/>
	</g>
	<g>
		<path class="st2" d="M677.3,358.8c0-1-0.8-1.9-1.9-1.9s-1.9,0.8-1.9,1.9s0.8,1.9,1.9,1.9S677.3,359.9,677.3,358.8z"/>
		<path class="st2" d="M677.5,358.8c0,1.2-1,2.1-2.1,2.1s-2.1-1-2.1-2.1s1-2.1,2.1-2.1S677.5,357.6,677.5,358.8
			C677.5,360,677.5,357.6,677.5,358.8z M673.8,358.8c0,0.9,0.7,1.6,1.6,1.6s1.6-0.7,1.6-1.6s-0.7-1.6-1.6-1.6
			S673.8,357.9,673.8,358.8S673.8,357.9,673.8,358.8z"/>
	</g>
</g>
<g>
	<path class="st2" d="M398.3,310.8L424,168.9h40.4l25.5,141.8h-31.7l-4.5-28.3h-18.4l-4.3,28.3H398.3z M438,262.4h12.8l-6.4-52.9
		L438,262.4z"/>
	<path class="st2" d="M703.2,318.7V202.5h-20.7v-25.7h76v25.7h-20.6v116.2L703.2,318.7L703.2,318.7z"/>
	<path class="st2" d="M911,320.5l25.8-141.8h40.4l25.5,141.8h-31.7l-4.5-28.3h-18.4l-4.3,28.3H911z M950.8,272.2h12.8l-6.4-52.9
		L950.8,272.2z"/>
	<path class="st2" d="M269.4,320.1l25.8-141.8h40.4L361,320.1h-31.7l-4.4-28.3h-18.4l-4.3,28.3H269.4z M309.2,271.8h12.8l-6.4-52.9
		L309.2,271.8z"/>
</g>
<g>
	<g>
		<g>
			<path class="st3" d="M782.2,175.6c-0.2,0-0.4-0.1-0.6-0.2c-0.5-0.3-0.6-1-0.2-1.4c0,0,0.7-0.9,1.8-2.5c0.3-0.4,1-0.5,1.4-0.2
				c0.5,0.3,0.5,1,0.2,1.4c-1.2,1.5-1.8,2.4-1.8,2.4C782.8,175.4,782.5,175.6,782.2,175.6z"/>
		</g>
		<g>
			<path class="st3" d="M893.4,190.2c-1.2,0-2.3-0.1-3.5-0.3c-0.5-0.1-0.9-0.6-0.8-1.2c0.1-0.6,0.6-0.9,1.2-0.8
				c1.8,0.3,3.7,0.4,5.7-0.1c0.5-0.1,1.1,0.2,1.2,0.7c0.1,0.6-0.2,1.1-0.7,1.2C895.5,190.1,894.4,190.2,893.4,190.2z M884.4,187.7
				c-0.2,0-0.4-0.1-0.5-0.1c-1.7-1-3.4-2.4-5-4.1c-0.4-0.4-0.4-1.1,0-1.4c0.4-0.4,1-0.4,1.5,0c1.5,1.6,3,2.8,4.6,3.7
				c0.5,0.3,0.6,0.9,0.3,1.4C885.1,187.6,884.7,187.7,884.4,187.7z M901.9,187.1c-0.3,0-0.6-0.1-0.8-0.4c-0.3-0.5-0.2-1.1,0.3-1.4
				c1.5-1,3-2.3,4.7-3.9c0.4-0.4,1-0.4,1.4,0s0.4,1.1,0,1.4c-1.7,1.7-3.3,3-4.9,4.1C902.3,187.1,902.1,187.1,901.9,187.1z
				 M875.7,179c-0.3,0-0.6-0.1-0.8-0.4c-1.1-1.5-2.2-3.3-3.4-5.3c-0.3-0.5-0.1-1.1,0.4-1.4s1.1-0.1,1.4,0.4c1.2,2,2.3,3.7,3.3,5.2
				c0.3,0.5,0.2,1.1-0.2,1.4C876.1,178.9,875.9,179,875.7,179z M910.9,178.6c-0.2,0-0.5-0.1-0.7-0.2c-0.4-0.4-0.5-1-0.1-1.4
				c1.2-1.4,2.5-3,4-4.8c0.3-0.4,1-0.5,1.4-0.2c0.4,0.4,0.5,1,0.2,1.4c-1.5,1.8-2.8,3.4-4,4.8C911.5,178.5,911.2,178.6,910.9,178.6z
				 M918.7,168.9c-0.2,0-0.4-0.1-0.6-0.2c-0.5-0.3-0.5-1-0.2-1.4l1.2-1.6c0.9-1.1,1.7-2.3,2.6-3.4c0.3-0.4,1-0.5,1.4-0.2
				c0.5,0.4,0.5,1,0.2,1.4c-0.8,1.1-1.7,2.2-2.6,3.4l-1.2,1.6C919.3,168.7,919,168.9,918.7,168.9z M869.3,168.3
				c-0.4,0-0.7-0.2-0.9-0.5l-1-1.9c-0.7-1.2-1.3-2.4-2-3.6c-0.3-0.5-0.1-1.1,0.4-1.4c0.5-0.3,1.1-0.1,1.4,0.4c0.7,1.2,1.3,2.4,2,3.6
				l1,1.9c0.3,0.5,0.1,1.1-0.4,1.4C869.6,168.3,869.4,168.3,869.3,168.3z M787.9,168.3c-0.2,0-0.5-0.1-0.7-0.2
				c-0.4-0.4-0.5-1-0.1-1.4c1.3-1.6,2.7-3.2,4.2-4.7c0.4-0.4,1-0.4,1.4-0.1c0.4,0.4,0.4,1,0.1,1.4c-1.4,1.5-2.8,3.1-4.1,4.6
				C788.5,168.1,788.2,168.3,787.9,168.3z M796.3,159.1c-0.3,0-0.5-0.1-0.7-0.3c-0.4-0.4-0.4-1.1,0-1.4c1.5-1.5,3-2.9,4.6-4.3
				c0.4-0.4,1.1-0.3,1.4,0.1c0.4,0.4,0.3,1.1-0.1,1.4c-1.5,1.3-3,2.8-4.5,4.2C796.8,159,796.6,159.1,796.3,159.1z M926.4,159.1
				c-0.2,0-0.5-0.1-0.7-0.2c-0.4-0.4-0.5-1-0.1-1.4c1.6-1.9,3-3.4,4.2-4.7c0.4-0.4,1-0.4,1.5,0s0.4,1.1,0,1.4
				c-1.2,1.2-2.6,2.7-4.1,4.6C927,158.9,926.7,159.1,926.4,159.1z M863.2,157.5c-0.3,0-0.7-0.2-0.9-0.5c-1.2-1.9-2.3-3.6-3.4-5.1
				c-0.3-0.5-0.2-1.1,0.2-1.4c0.5-0.3,1.1-0.2,1.4,0.2c1.1,1.6,2.3,3.3,3.5,5.3c0.3,0.5,0.1,1.1-0.3,1.4
				C863.5,157.4,863.3,157.5,863.2,157.5z M805.6,150.8c-0.3,0-0.6-0.1-0.8-0.4c-0.3-0.4-0.3-1.1,0.2-1.4c1.7-1.3,3.4-2.6,5.1-3.7
				c0.5-0.3,1.1-0.2,1.4,0.3c0.3,0.5,0.2,1.1-0.3,1.4c-1.6,1.1-3.3,2.3-5,3.6C806.1,150.8,805.9,150.8,805.6,150.8z M855.8,147.4
				c-0.3,0-0.5-0.1-0.8-0.3c-1.4-1.6-3-2.9-4.5-4c-0.5-0.3-0.5-1-0.2-1.4c0.3-0.5,1-0.6,1.4-0.2c1.6,1.2,3.2,2.6,4.8,4.3
				c0.4,0.4,0.4,1.1,0,1.4C856.3,147.3,856.1,147.4,855.8,147.4z M816,143.9c-0.4,0-0.7-0.2-0.9-0.5c-0.3-0.5-0.1-1.1,0.4-1.4
				c1.9-1.1,3.8-2,5.7-2.7c0.5-0.2,1.1,0,1.3,0.6s0,1.1-0.6,1.3c-1.8,0.7-3.7,1.6-5.5,2.6C816.3,143.9,816.2,143.9,816,143.9z
				 M845.8,140.2c-0.1,0-0.3,0-0.4-0.1c-1.7-0.7-3.5-1.2-5.4-1.5l-0.3-0.1c-0.6-0.1-0.9-0.6-0.9-1.2s0.6-0.9,1.2-0.9l0.4,0.1
				c2,0.3,4,0.9,5.8,1.6c0.5,0.2,0.8,0.8,0.5,1.3C846.6,140,846.2,140.2,845.8,140.2z M827.5,139.3c-0.5,0-0.9-0.3-1-0.8
				c-0.1-0.6,0.2-1.1,0.8-1.2c2.1-0.5,4.3-0.9,6.3-1c0.6-0.1,1,0.4,1.1,1c0,0.6-0.4,1.1-1,1.1c-1.9,0.1-3.9,0.4-6,0.9
				C827.7,139.3,827.6,139.3,827.5,139.3z"/>
		</g>
	</g>
	<g>
		<polygon class="st4" points="968,131.1 933.3,152.5 934.9,140 		"/>
		<polygon class="st3" points="968,131.1 933.3,152.5 937.6,143.6 		"/>
		<g>
			<polygon class="st2" points="947.7,156.7 926.1,130.3 972.9,125.3 			"/>
			<polygon class="st4" points="971.4,126.1 934.7,140.8 937.3,144.1 			"/>
		</g>
	</g>
</g>
<g>
	<path class="st4" d="M737.5,142.6c0,0,3.3,12,5,14c1.6,2,7,4.9,7,4.9l-1.4,2.5c0,0-9.7-4.9-11.4-9c-1-2.4-1.6-4.4-2-6.2
		c-0.3-1.5-1.4-5.2-0.8-6.7C734.2,141.1,736.7,140.6,737.5,142.6z"/>
	<path class="st5" d="M737.5,142.6c0,0,3.3,12,5,14c1.6,2,7,4.9,7,4.9l-1.4,2.5c0,0-9.7-4.9-11.4-9c-1-2.4-1.6-4.4-2-6.2
		c-0.3-1.5-1.4-5.2-0.8-6.7C734.2,141.1,736.7,140.6,737.5,142.6z"/>
	<path class="st3" d="M770.8,199.9l2.5-2.3c0,0,9.8-0.7,10.4,0.1s-9.3,5.5-10.6,5.4C771.8,203.1,771,200.8,770.8,199.9z"/>
	<path class="st6" d="M752.9,166.7c0,0,9.3-2.4,10-0.8c0.8,1.5,10.4,31.7,10.4,31.7l-2.5,2.3c0,0-10.3-25.5-13.3-28.2
		C754.5,169.1,751.5,167.8,752.9,166.7z"/>
	<path class="st7" d="M752.9,166.7c0,0,9.3-2.4,10-0.8c0.8,1.5,10.4,31.7,10.4,31.7l-2.5,2.3c0,0-10.3-25.5-13.3-28.2
		C754.5,169.1,751.5,167.8,752.9,166.7z"/>
	<g>
		<path class="st6" d="M748.1,161.1c0.7-0.2,1.3-0.4,1.9-0.8c0.5-0.3,1-0.6,1.6-0.5c0.4,0.1,4,1.6,3.1,2.2c-0.3,0.2-1.1-0.2-1.4-0.3
			c-0.4-0.2-0.9-0.4-1.3-0.6c0.4,0,2.3,0.8,2.1,1.2c-0.4,0.8-2.3-0.3-2.8-0.5c0.3,0.1,1.5,0.5,1.5,0.9c0,0.7-1.4,0.1-1.8,0
			c-0.2-0.1-0.4-0.3-0.7-0.3c-0.3,0-0.6,0.1-0.9,0.1c-0.5,0.1-1,0.1-1.5,0c-0.3,0-1,0-1.1-0.2c-0.2-0.3,0-0.9,0.2-1.1
			C747.4,161.3,747.8,161.2,748.1,161.1z"/>
		<path class="st8" d="M748.1,161.1c0.7-0.2,1.3-0.4,1.9-0.8c0.5-0.3,1-0.6,1.6-0.5c0.4,0.1,4,1.6,3.1,2.2c-0.3,0.2-1.1-0.2-1.4-0.3
			c-0.4-0.2-0.9-0.4-1.3-0.6c0.4,0,2.3,0.8,2.1,1.2c-0.4,0.8-2.3-0.3-2.8-0.5c0.3,0.1,1.5,0.5,1.5,0.9c0,0.7-1.4,0.1-1.8,0
			c-0.2-0.1-0.4-0.3-0.7-0.3c-0.3,0-0.6,0.1-0.9,0.1c-0.5,0.1-1,0.1-1.5,0c-0.3,0-1,0-1.1-0.2c-0.2-0.3,0-0.9,0.2-1.1
			C747.4,161.3,747.8,161.2,748.1,161.1z"/>
	</g>
	<g>
		<polygon class="st3" points="764.2,145.1 766.3,146 758.8,164.1 756.6,162.9 		"/>
		<rect x="743.2" y="162.6" class="st3" width="14.3" height="2.2"/>
	</g>
	<path class="st3" d="M717.9,152.3c1.9-1.1,2.2-2.3,1.2-6.3c-1.1-4,1.7-8.1,4.4-9.2c2-0.8,3.7-1.2,4.9-3.2s-1.1-6.5,2.7-9.8
		c2.7-2.4,6.7-0.5,6.7-0.5c0.8-0.5,1.2,4.5,1.3,8.2c-4.8,7.3-3.4,16.8-1.7,25c0,0.2,0.1,0.4,0.2,0.6c-0.4,6.3-0.7,11.6-0.7,11.6
		s-11.5,6.5-19.3,0.9C709.7,163.9,714.1,154.5,717.9,152.3z"/>
	<path class="st3" d="M751.6,198.4l2.9,1.7c0,0,3.6,9.2,2.9,10c-0.7,0.8-8-7.3-8.3-8.5C748.9,200.3,750.8,198.8,751.6,198.4z"/>
	<path class="st6" d="M747.9,166.2c0,0,18.7,1.3,20.5,3s-14.1,30.8-14.1,30.8l-2.6-1.5c0,0,3.9-13.8,5-17c1-3.2,3-7.1,2.6-7.6
		c-0.4-0.5-19.2,2.3-19.1-3C740.3,165.5,747.9,166.2,747.9,166.2z"/>
	<path class="st6" d="M738.7,134.6c0,0-2,5.4-0.8,9.3l-6.5-1.6c0,0,2.7-8.9,3.8-10.5C736.3,130.4,738.7,134.6,738.7,134.6z"/>
	<path class="st7" d="M738.7,134.6c0,0-2,5.4-0.8,9.3l-6.5-1.6c0,0,2.7-8.9,3.8-10.5C736.3,130.4,738.7,134.6,738.7,134.6z"/>
	<path class="st6" d="M739.4,127.6c0,0,2.5,1.2,3.2,2.2c0.6,1,0.1,2.4,0.1,3.4s0.3,2.3,0.2,2.6s-1.1,0-1.2,0.2
		c-0.2,0.2-1.4,1-1.8,1.8s-0.9,0.9-1.8,0.5c-0.9-0.4-4.3-4.9-4.3-7C733.7,129.2,736.8,126.8,739.4,127.6z"/>
	<path class="st3" d="M737.2,124.8c0,0,1.2,2.4,1.3,3.3c0.1,0.9-0.8,3.7-1.3,4.1c-0.5,0.4-0.1-3.1-1.4-2.1s0.1,3.1,0,3.5
		c-0.1,0.4-0.7,1.7-2.1,1.8s-3.7-6.8-2.2-8.5S735.6,124.8,737.2,124.8z"/>
	<path class="st9" d="M729.4,160.4l8.7-0.6c0,0,4.5,5,9,5c4.4,0,15.2,0,15.2,0s-0.8,6.3-4.4,11.4c0,0-14.5,1.1-21.6,0.5
		C729.2,176.1,722.5,168.3,729.4,160.4z"/>
	<path class="st10" d="M728.5,161.4c0.2-0.3,0.5-0.7,0.8-1l8.7-0.6c0,0,4.4,4.9,8.8,5C741.5,165.3,731.4,166.5,728.5,161.4z"/>
	<path class="st11" d="M758.2,165.8c-2.2-0.2-4.4-0.7-6.5-1h9.6C760.3,165.3,759.8,166,758.2,165.8z"/>
	<path class="st4" d="M732.2,139.3c0,0,4,1.6,5.3,1.7c0,0,2.8,6.2,3.9,7.9c1.1,1.7-2.8,8.1-3,10.8c0,0-2.3,2.2-9.3,0.9
		C729.1,160.6,727.3,143.2,732.2,139.3z"/>
	<path class="st5" d="M731.2,143c1.2-0.6,3.3,0,3.9,1.2c0.7,1.5,0,4.2,0.1,5.8c0.1,1.7,0.2,4,0.6,5.7c0.3,1.3,1.2,2.9,2.3,4.2
		c-0.9,0.5-3.5,1.6-9,0.6c0,0-1.1-10.6,0.7-17.1C730.4,143.4,730.8,143.2,731.2,143z"/>
	<path class="st6" d="M746.7,161.1c0.7-0.2,1.3-0.4,1.9-0.8c0.5-0.3,1-0.6,1.6-0.5c0.4,0.1,4,1.6,3.1,2.2c-0.3,0.2-1.1-0.2-1.4-0.3
		c-0.4-0.2-0.9-0.4-1.3-0.6c0.4,0,2.3,0.8,2.1,1.2c-0.4,0.8-2.3-0.3-2.8-0.5c0.3,0.1,1.5,0.5,1.5,0.9c0,0.7-1.4,0.1-1.8,0
		c-0.2-0.1-0.4-0.3-0.7-0.3c-0.3,0-0.6,0.1-0.9,0.1c-0.5,0.1-1,0.1-1.5,0c-0.3,0-1,0-1.1-0.2c-0.2-0.3,0-0.9,0.2-1.1
		C746.1,161.3,746.4,161.2,746.7,161.1z"/>
	<path class="st4" d="M747.3,161.1l-0.8,2.9c0,0-18.8-2.2-19.2-5.5s0.8-18.8,5.3-17.2c4.5,1.6,0,12.9,0.8,13.7
		C734.1,155.8,747.3,161.1,747.3,161.1z"/>
	<path class="st3" d="M737,123.5c0,0,2.2-1.7,4.6,0.2s2.2,4.7,4.2,4.5c0,0-1.3,3.3-4,2.5C738.9,129.9,736.1,125.5,737,123.5z"/>
</g>
<g>
	<path class="st8" d="M271.5,155.7c-0.5-0.3-1-0.6-1.3-1.1c-0.1-0.2-0.3-0.5-0.5-0.6c-0.2-0.2-0.4-0.4-0.6-0.7
		c-0.2-0.2-0.4-0.5-0.7-0.6c-0.4-0.1-0.3,0.4-0.1,0.7c0.1,0.3,1.1,0.9,1,1.3s-1.2-0.5-1.4-0.6c-0.5-0.4-0.5-0.9-0.7-1.4
		c-0.1-0.3-0.3-0.4-0.5-0.1c-0.1,0.3,0,0.6,0.1,0.8c0.2,0.5,0.5,1.1,0.9,1.4c-0.4-0.2-0.8-0.9-1-1.2c-0.1-0.3-0.6-1.5-1-1.3
		c-0.9,0.4,0.8,2.8,1.3,3.1c-0.4-0.3-0.8-0.8-1.1-1.2c-0.2-0.3-0.6-0.9-0.8-0.4c-0.3,0.8,1.2,1.7,1.8,2.2c-0.5-0.2-0.8-0.5-1.2-0.9
		c-0.5-0.4-0.7,0.1-0.2,0.6c0.2,0.2,0.7,0.6,0.8,0.7c1.1,0.8,1.8,1,3.1,1.1c0.5,0.1,1.3,0.6,1.6,0.4
		C271.4,157.5,271.4,156.4,271.5,155.7z"/>
	<path class="st12" d="M270.8,154.4c0,0,10.1,2.8,11.2,2.8c1-0.1,3.4-9,4.4-13.4c0.1-0.4,1.4-0.4,3-1.7c0.6-0.5,2.5,0.5,3.1,0
		c1.2,1.3,1.5,3.1,0.8,4.7c-2.3,5.1-4.3,14.9-9.6,15c-7,0.1-14.2-3.5-14.2-3.5L270.8,154.4z"/>
	<path class="st8" d="M268.6,155.6c0,0,0.4-0.7,0.5-0.9c0.1-0.4-0.8-1-0.9-1.3c-0.1-0.3-0.2-0.8,0.1-0.7c0.3,0.1,0.5,0.4,0.7,0.6
		c0.2,0.2,0.4,0.5,0.6,0.7c0.2,0.2,0.4,0.4,0.5,0.6c0.1,0.2,0.3,0.3,0.4,0.5C270.2,155.5,268.6,155.6,268.6,155.6z"/>
	<path class="st3" d="M266.1,186.7c0,0-0.9,4.4-1.8,4.8c-0.9,0.4-10.1-1.9-10.6-2.9c-0.5-1,0.2-2.1,2.2-2c1.8,0.1,2.9,0.7,4.4,0.5
		c1.2-0.2,2.5-2.6,2.5-2.6L266.1,186.7z"/>
	<path class="st3" d="M281.6,196.6c0,0,2.4,3.8,2,4.7c-0.4,0.9-8.5,5.6-9.6,5.3c-1.1-0.4-1.3-1.7,0.1-3c1.3-1.2,2.6-1.5,3.5-2.6
		c0.8-1,0-3.6,0-3.6L281.6,196.6z"/>
	<path class="st4" d="M295.4,164.4c0,0-3.7,1.9-5.4,1.7c-1.7-0.2-16.5,0.9-18.2,2.4c-1.7,1.4,5.3,29.9,5.3,29.9l5.9-1
		c0,0-2.1-20.8-1.8-21c0.4-0.1,9.2-0.1,24.3-0.1c3.7,0,7.8-7.7,3.1-13.1L295.4,164.4z"/>
	<path class="st5" d="M274.3,170.8c0.7-1.2,1.2-2.6,1.6-4c5.1-0.6,12.8-0.8,14-0.7c1.7,0.2,5.4-1.7,5.4-1.7l0.9-0.1
		c-1.1,1.5-2.3,2.8-3.9,3.2c-1.9,0.4-3.8,0.5-5.7,1c-3.2,0.8-6.3,2.5-7.8,5.7c-1.7,3.8-3.5,7.8-4.7,12.1c-1-4.3-2-8.9-2.5-12.4
		C272.9,173.3,273.7,171.8,274.3,170.8z"/>
	<path class="st4" d="M293.9,161.2c0,0-17.6,1.1-19.3,2.7c-1.7,1.6-13,21.1-13,21.1l4.7,3.4c0,0,9.3-13.7,13.7-19c1-1.2,2.4-2,4-2.3
		c1.9-0.3,4.7-0.7,6.8-0.9c3.5-0.2,5.1-1.9,5.1-1.9L293.9,161.2z"/>
	<path class="st6" d="M289.3,134.1c0.5-0.3,1-0.7,1.4-1.2c0.4,1.7,1.5,4.8,3.4,6.2c0,0-3.5,1.9-6.5,1.6c0,0-0.1-4.1-1-6
		C287.6,134.7,288.5,134.5,289.3,134.1z"/>
	<path class="st7" d="M289.3,134.1c0.5-0.3,1-0.7,1.4-1.2c0.4,1.7,1.5,4.8,3.4,6.2c0,0-3.5,1.9-6.5,1.6c0,0-0.1-4.1-1-6
		C287.6,134.7,288.5,134.5,289.3,134.1z"/>
	<path class="st6" d="M286.4,123.6c0,0-4.5,0.3-5.5,1.6c-1,1.3-1,4.2-0.2,5.5c0.8,1.4-0.2,3.7-0.1,4.3c0.1,0.4,1.6,0.2,1.7,0.4
		s1.2,2.8,3.1,2.6c2.7-0.3,5.3-3.6,5.9-5.5C291.8,130.4,290.5,123,286.4,123.6z"/>
	<path class="st3" d="M278.9,126.6c0.1-0.3,0.5-0.8,0.6-1.2c0-0.3,0-0.6,0-0.8c0.2-0.8,0.1-1.3,1.7-2.6c1.4-1.1,3.7-1.3,5.3-0.8
		c0.6,0.2,1.2,0.5,1.7,0.9c0.1,0.1,0.6,0.4,0.6,0.6c0,0.2-0.5,0.6-0.7,0.8c-0.3,0.3-0.4,0.7-0.6,1.1c-1.3,2.2-3.5,4.9-6.3,3.6
		c-0.4-0.2-0.8-0.4-1.1-0.6c0,1,0,2,0.5,2.9c0,0-0.9-0.2-1.3-1C278.5,128.3,278.6,127.3,278.9,126.6z"/>
	<path class="st3" d="M287.4,123.2c0.4-0.4,1.3-0.7,1.9-0.8c1.1-0.2,2,0.4,2.6,1.3c0.4,0.6,0.7,1.2,0.9,1.8c0.4,1.1,0.6,1.8,0.6,3
		c0,1.1-0.1,2.3-0.7,3.3c-0.5,0.9-1.6,2.2-2.4,2.2c-0.3,0-1.5-1.8-1.6-2.3c-0.1-0.5,0.1-0.6,0.4-1c0.5-0.6,0.9-1.6,0.2-2.2
		c-1.1-0.8-2.1,0.1-2,1.8c0,0-0.2,1.1-0.5,1C286.6,131.4,283.7,127.6,287.4,123.2z"/>
	<path class="st13" d="M311.5,164.8c0,0-5.2,5.7-19.1,1.8c0,0-0.5-3.4-1.9-6.9c-1.5-3.4-3.9-10.1-4.3-13.7c-0.5-4.1,1.5-6.2,1.5-6.2
		s2.6,1.9,5.8-1.4c0,0,6.8,0.8,10.9,8S311.5,164.8,311.5,164.8z"/>
	<path class="st12" d="M292.5,144.3c0.1-0.2,0.1-0.4,0.1-0.5c3.3,1.6,2.9,4.8,2.1,9.6c-0.6,3.7-2.4,9.6-2.7,10.9
		c-0.3-1.3-0.8-2.9-1.5-4.6c-0.7-1.6-1.5-3.8-2.3-6.2c1.2-1.8,2-3.6,2.7-5.7C291.3,146.6,292.1,145.5,292.5,144.3z"/>
	<g>
		<path class="st2" d="M269.8,152.3l-11.6-6.9c0,0-4.2,4.2-5.4,9.8l13.2,6.2C266,161.4,268,156.6,269.8,152.3z"/>
		<path class="st14" d="M260.9,156.7c2.7-0.8,5.6-2.9,6.9-5.6l2,1.2c-1.8,4.2-3.9,9.1-3.9,9.1l-9.6-4.5
			C257.8,157.1,259.2,157.2,260.9,156.7z"/>
	</g>
	<path class="st6" d="M269.9,159.5c-0.6,0-1.2,0.1-1.7-0.2c-0.2-0.1-0.5-0.3-0.8-0.3s-0.6-0.1-0.9-0.2c-0.3-0.1-0.6-0.2-0.9-0.1
		c-0.4,0.1,0,0.4,0.2,0.6c0.3,0.2,1.4,0.2,1.5,0.6s-1.3,0.3-1.6,0.2c-0.6-0.1-0.9-0.5-1.3-0.8c-0.3-0.2-0.5-0.2-0.5,0.2
		c0,0.3,0.3,0.5,0.5,0.7c0.4,0.3,1,0.6,1.5,0.7c-0.4,0-1.1-0.3-1.5-0.5c-0.3-0.1-1.3-1-1.5-0.6c-0.6,0.8,2.2,1.9,2.7,1.9
		c-0.5,0-1-0.2-1.5-0.4c-0.3-0.1-1-0.4-0.9,0.1c0.2,0.8,1.9,0.8,2.7,1c-0.5,0.1-1,0-1.5-0.1c-0.7-0.1-0.5,0.4,0.2,0.6
		c0.3,0.1,0.9,0.1,1,0.2c1.4,0.1,2.1-0.1,3.3-0.7c0.4-0.2,1.4-0.1,1.6-0.5C270.8,161,270.1,160.1,269.9,159.5z"/>
	<path class="st13" d="M269.6,159l-0.3,3.9c0,0,16.8,1.4,18.7,0.1c1.9-1.2,2.8-3.2,3.5-5c1.2-3.6,6-13.4,1.7-14.9
		c-1.4-0.5-3.1-0.5-4.1,1.3c-2,3.9-4.2,12.8-4.8,13.1C283.5,158.1,269.6,159,269.6,159z"/>
</g>
<g>
	<g>
		<path class="st3" d="M367.4,237.2c0,0,2.4,7,3.8,10.1c7.9,17.3-6.7,15.1-12.2,14.3c-5.5-0.8-11.8-2.9-11.5-7.4
			c0.2-3,2.1-3.4,2.8-4.4s-0.7-2.7-0.1-5.2c0.6-2.5,4.8-3,5.6-3.7c0.8-0.7,2.5-2.6,1.7-6.2s-1.2-5.6,1.2-7.9c2.4-2.4,6-1.3,6-1.3
			L367.4,237.2z"/>
		<path class="st6" d="M394.5,264.1c-0.5-0.4-2.4,0.7-3.8,1.2c-0.8,0.3-2.4,0.3-3.6,0.3c0,0.7-0.1,1.4-0.3,2c0.9,0,1.6,0.2,2.2,0.1
			c0.7,0,2-0.2,2.5-0.3c0.5-0.1,1.2-0.1,1.6,0.2c1.6,1.3,2.4,1.4,2.6,0.9c0-0.1-1.2-1.2-1.6-1.6c0.7,0.6,2.4,1.8,2.7,1.5
			c0.3-0.3-1.3-1.7-2-2.3c0.7,0.6,2.5,2.1,2.9,2C398.8,267.8,395,264.5,394.5,264.1z"/>
		<rect x="381.7" y="267.9" class="st3" width="19.5" height="2.5"/>
		<path class="st13" d="M388.5,265.3l-0.7,2.9c0,0-9-1-12.1-2.4c-3.1-1.4-6.1-8.7-6.1-8.7l2.3-9.2c0,0,4.5,12,6.1,13.5
			C379.7,262.8,388.5,265.3,388.5,265.3z"/>
		<path class="st15" d="M425,260.3h-38.1c-1,0-1.8-0.8-1.8-1.8v-23c0-1,0.8-1.8,1.8-1.8H425c1,0,1.8,0.8,1.8,1.8v23
			C426.8,259.5,426,260.3,425,260.3z"/>
		<path class="st3" d="M387.2,258.5v-23c0-1,0.8-1.8,1.8-1.8h-2.2c-1,0-1.8,0.8-1.8,1.8v23c0,1,0.8,1.8,1.8,1.8h2.2
			C388,260.3,387.2,259.5,387.2,258.5z"/>
		<path class="st3" d="M406,266.9c0,0,0.8-8.1-2.9-10.8c0,0-0.8-0.7,0.5-1.5s5.2-1.7,6.5,0.7c1.3,2.4,2.2,6.5,1.6,11.6L406,266.9
			L406,266.9z"/>
		<g>
			<g>
				<rect x="353" y="286.2" class="st15" width="1.7" height="45.5"/>
				<rect x="385" y="286.2" class="st15" width="1.7" height="45.5"/>
			</g>
			<rect x="348.4" y="283.5" class="st3" width="43" height="4.5"/>
		</g>
		<path class="st3" d="M371.7,311.4c0,0-4.4,3.8-4.4,4.4c0,0.5,7.5,13.3,8.8,13.3s1.6-2.2,1.4-3c-0.2-0.8-2.6-13-2.6-13L371.7,311.4
			z"/>
		<path class="st3" d="M365.4,313.8c0,0-4.3,4-4.2,4.5s7.9,13,9.2,13s1.5-2.2,1.3-3c-0.2-0.8-3-12.9-3-12.9L365.4,313.8z"/>
		<path class="st9" d="M368.1,270.1c0,0,5.5,2.6,11.9,5.1c4,1.6,9.7,3.6,9.5,8c-0.1,3.2-12.9,33.7-12.9,33.7l-5.8-2.9
			c0,0,10.6-25.7,10.4-27.5s-1.4-0.2-11.9-1.1c-10.5-1-13.7-3-13.6-7.9c0.1-5,2.8-11.9,7.1-13.7C367.1,262,368.1,270.1,368.1,270.1z
			"/>
		<path class="st10" d="M368.1,270.1c0,0,2.1,2.7,8.5,5.2c4,1.6,9.1,4.5,9.1,7.2c0,3.2-11.9,33-11.9,33l-2.9-1.5
			c0,0,10.6-25.7,10.4-27.5s-1.4-0.2-11.9-1.1c-10.5-1-13.7-3-13.6-7.9c0.1-5,2.8-11.9,7.1-13.7S368.1,270.1,368.1,270.1z"/>
		<path class="st9" d="M365.2,266.3c0,0,1.7,7,5.7,8.7c4,1.7,13.2,3.6,13.2,8c0,3.2-13.7,34.6-13.7,34.6l-7-3.3
			c0,0,9.3-25.4,9.1-27.1s0.7-0.9-9.8-1.5c-10.5-0.6-11.9-2.6-12-7.6c-0.1-5,6.4-11.7,6.4-11.7C361.2,264.4,365.2,266.3,365.2,266.3
			z"/>
		<path class="st7" d="M368,236c0,0-1.7,6.8,1.4,10.3c0,0,4.1,5.5-2.4,6.5c-6.5,0.9-5.6-7.6-5.6-7.6s1.1-9.4-0.6-13.4
			C360.8,231.8,365,234.1,368,236z"/>
		<path class="st6" d="M363.6,226.4c0,0,8.9,0.4,9,2.6s-0.8,3.6-0.5,5.6c0.6,4.1-1.8,8.7-2.8,8.9c-1.6,0.3-7.1-2.1-8-5.5
			C360.4,234.6,360.2,225.1,363.6,226.4z"/>
		<path class="st6" d="M372.1,265.7c0,0,1.9,0.2,2.2,0.2c0.4,0,5.5-2.9,6.1-2.5c0.5,0.4,5.8,4,5.6,4.7s-1.6,0.3-4.4-2.1
			c0,0,3.7,2.6,3,3.2s-3.9-2.3-3.9-2.3s3.3,2.5,2.5,3s-3.7-2.4-3.7-2.4s2.3,2.2,2,2.6c-0.3,0.4-1.8-0.3-3.4-1.7c0,0-0.3-0.2-1.1,0.3
			s-6-0.4-6-0.4L372.1,265.7z"/>
		<path class="st3" d="M373.3,233.2c0,0-6.2,1.4-8.2-3.3c-1.6-3.8-1-4.2-1-4.2s3.4-2.7,7.4,0.9C374.2,229,373.3,233.2,373.3,233.2z"
			/>
		<path class="st3" d="M364.6,225.6c0,0,3.3,2.9,1.5,5.6c-1.6,2.5-0.6,3.8-0.9,5.5c0,0-0.8-0.4-1-1.1c-0.2-0.8-0.4-2.7-1.5-2.4
			c-1,0.3-2,1.6,0,3.2c0,0,1.1,2.2-0.3,4c0,0-5.3-4.6-3.8-9.7C360.2,225.5,364.6,225.6,364.6,225.6z"/>
		<path class="st13" d="M368.7,245.4c0,0,0.4,3.2-0.8,3.8s-5.3-5.5-5.3-5.5s-5.6,2.4-6.9,3.4c-1.3,1,0.6,10.9,0.6,10.9
			s-3.9,11.8-3.4,14.4s17.5-0.5,17.5-0.5s1.6-12.1,2.3-13.9s1.5-2.9,0.6-5.5c-1.2-3.7-1.5-4.6-1.5-4.6S370,245.9,368.7,245.4z"/>
		<path class="st12" d="M358.6,256.1c-1.3-1.7-0.5-4.6-1.9-6.4c-0.4-0.5-0.8-1.1-1.3-1.6c-0.3,2.8,1,9.8,1,9.8s-3.9,11.8-3.4,14.4
			s17.5-0.5,17.5-0.5s1.5-10.6,2.1-13.4c-0.4,0.6-3.9,4.9-7.7,4.3C362.9,262.3,361.2,259.6,358.6,256.1z"/>
		<path class="st3" d="M361.6,234.3c0,0-0.1,1.3,1,1.6c0.5,0.1,0.4,1.6,0.8,3c0.7,2.8,0.3,4.6-1.8,5.4c-1.5,0.6-3.5,1-5.9,2.7
			c-2.4,1.7-0.9-5.3,2.1-7C360.8,238.3,361.6,234.3,361.6,234.3z"/>
		<path class="st3" d="M415.3,270.4h-12.5c-0.8,0-1.2-0.8-0.9-1.5l0.7-1.5c0.2-0.3,0.5-0.6,0.9-0.6h11c0.4,0,0.7,0.2,0.9,0.6
			l0.7,1.5C416.5,269.6,416,270.4,415.3,270.4z"/>
		<g>
			<g>
				<rect x="325.2" y="270.4" class="st16" width="109.1" height="2.9"/>
				<g>
					<g>
						<rect x="329.3" y="271.7" class="st16" width="1.3" height="60.1"/>
					</g>
					<g>
						<rect x="429" y="271.7" class="st16" width="1.3" height="60.1"/>
					</g>
				</g>
			</g>
		</g>
		<path class="st13" d="M373.7,265.6l-0.3,3.7c0,0-21.7,0.2-24.9-0.2s-4.7-4.7-2.6-8.5c2.1-3.8,8.4-13.6,11.1-13.9s4.3,3.5,2.1,7.6
			c-2.3,4.1-6.4,8-5.5,8.6C354.4,263.6,373.7,265.6,373.7,265.6z"/>
	</g>
</g>
<g>
	<polygon class="st15" points="632.1,251.5 634.6,287.5 662,289.2 661.3,252.5 	"/>
	<path class="st15" d="M659.5,250.6c-2.2-0.7-7.3,19.3-6.5,22.6c0.5,2.2,19.2,1.4,19.2,1.4l0.2-3.8c0,0-11.8-1.3-11.8-2.3
		s3.5-7.4,3.5-7.4S661.8,251.3,659.5,250.6z"/>
	<path class="st7" d="M650.7,238.8l-5,0.8c0,0,1.4,4.5-0.8,8.3c0,0,3.6,3.9,6.1,2.9c2.7-1.1,1.7-3.8,1.7-3.8S650,244.8,650.7,238.8z
		"/>
	<path class="st6" d="M644.9,231.1c0,0,7.8-0.9,8.4,0.4c0.5,1.3,0.7,5,1.2,5.8s1.4,1.7,1.1,2.2c-0.3,0.5-0.7,0.4-0.9,0.9
		c-0.2,0.6-0.1,3.8-1.2,4.3s-6.3,0.2-8.2-2.8C643.3,238.9,641.1,231.4,644.9,231.1z"/>
	<path class="st3" d="M642.9,231.8l5.2,2.4c0,0-0.2,3,1.3,5.7c0,0-0.5,0.7-1,0.3c-0.5-0.4-0.8-0.6-0.9-1.4c-0.1-0.8-0.6-2.8-1.9-1.8
		s0.1,2.2,0.8,2.5c0,0,1.1,3.9-1,3.7c0,0-1.9-1.2-3.6-6C640.2,232.5,641.6,230.9,642.9,231.8z"/>
	<path class="st3" d="M655.5,230.1c0,0,1.9,2.7-2.5,4.5c-4.3,1.8-10.5-2.9-10.5-2.9s0.2-2.4,3.6-3.4c2.6-0.8,5-0.6,6.3,0.9
		C654.7,231.7,655.5,230.1,655.5,230.1z"/>
	<g>
		<rect x="637" y="291.1" class="st15" width="1.5" height="39.5"/>
		<rect x="664.7" y="291.1" class="st15" width="1.5" height="39.5"/>
	</g>
	<rect x="633" y="287.5" class="st3" width="37.3" height="5.2"/>
	<path class="st15" d="M645.5,246.6c0,0-7,1.9-7.3,2.1c0,0,0.8,10.1,0.7,12.9c-0.1,2.7-1.2,14.4-1.2,14.4h21.8
		c0,0-0.3-11.9-0.2-14.5c0,0-0.7-8.8,0.2-10.9c0,0-4.6-2.9-6.7-3.7c0,0,0,2.9-1.5,3.7C649.7,251.4,645.5,246.6,645.5,246.6z"/>
	<path class="st17" d="M659.3,261.5c0,0,0-1.2-0.1-2.9c-0.4,1.4-0.9,2.9-1.6,4.3c-1.4,2.9-4.9,7-8.7,6.6c-3.8-0.4-6.8-3.8-7.7-7.4
		c-0.7-2.7-0.4-5.7-1.3-8.4c-0.4-1.2-1-2.1-1.7-3c0.2,3.1,0.6,9,0.5,11c-0.1,2.7-1.2,14.4-1.2,14.4h21.8
		C659.4,276,659.2,264.1,659.3,261.5z"/>
	<g>
		<path class="st3" d="M659,273.9l-5-8.4c0,0-1.2-0.7-1.2,0.8l5.7,8C658.6,274.3,659.9,275.9,659,273.9z"/>
		<path class="st6" d="M657.1,271.8c-0.4-0.5-0.8-1.4-1.7-1.9s-4.5,1.1-4.7,1.1c-0.1,0-2.4,0.7-2.9,0.6c-0.1,0.8-0.3,1.7-0.5,2.5
			c0.8,0.3,3.6-0.2,3.9-0.3c0.7-0.1,1.3,0.1,1.9,0.5s1.1,0.7,1.5,0.7c0.4-0.1,0-0.6-0.3-0.9c0,0,0,0,0,0c1,1.2,1.5,1,1.7,0.8
			c0.2-0.3-1.1-1.5-1.2-1.6s-1.3-1-1.3-1c0.4,0.1,1.3,0.9,1.5,1c0.1,0.1,1.5,2.2,2,1.6c0.5-0.6-0.7-1.7-1.1-2.4
			c-0.5-0.7-1.5-1.2-1.5-1.2c0.6-0.1,1.5,1,1.8,1.3c0.3,0.4,1.1,2.1,1.8,1.7C658.7,273.9,657.5,272.3,657.1,271.8z M654.3,274.1
			c-0.3-0.3-1.1-0.8-1.1-0.8S653.9,273.7,654.3,274.1z"/>
		<path class="st6" d="M656.9,270.3c0,0,1.3,0.5,1.6,1.1c0.2,0.6-0.1,1-0.5,0.8L656.9,270.3z"/>
	</g>
	<path class="st15" d="M638.2,248.7c0,0-2.3,1.6-3.4,3.7s-7,17.6-6.2,20.8c0.5,2.2,19.2,1.4,19.2,1.4l0.2-3.8c0,0-11.8-1.3-11.8-2.3
		s3.5-7.4,3.5-7.4S641.6,253.2,638.2,248.7z"/>
	<path class="st3" d="M668.3,324.3c0,0,6.2,1.7,8.8,2.5c2.2,0.7,1.9,2.6-0.4,3.5c-2.3,0.9-4.3,0.6-4.9-0.1c-0.6-0.7-1.9-0.3-2.4,0
		s-5-0.3-5.3-1.2s0.1-4.5,0.1-4.5L668.3,324.3z"/>
	<path class="st3" d="M658.2,324.7c0,0,6.1,2.2,8.6,3.2c2.1,0.9,1.7,2.8-0.7,3.5s-4.3,0.2-4.9-0.5s-1.9-0.5-2.4-0.2
		s-4.9-0.7-5.1-1.6c-0.2-0.9,0.9-5.2,0.9-5.2L658.2,324.7z"/>
	<path class="st4" d="M671.9,288.2c-0.7-2.6-13.4-10.3-14.5-12.6h-10.3c-1,1.5-2.3,4.1-2.7,7.9c-0.7,6.5,5.4,4.3,11.4,4.5
		s8.4,3.9,8.6,5.5s-0.9,31.3-0.9,31.3l8.1,0C671.5,324.8,672.3,289.8,671.9,288.2z"/>
	<path class="st5" d="M666.1,324.8c0,0,2.7-35.4,2.1-36.3c-1.9-2.8-10.9-9.5-14-12.5l-7.1-0.3c-1,1.5-2.3,4.1-2.7,7.9
		c-0.7,6.5,5.4,4.3,11.4,4.5s8.4,3.9,8.6,5.5s-0.9,31.3-0.9,31.3L666.1,324.8z"/>
	<path class="st4" d="M666.7,289.1c-0.5-2.2-13.8-10.1-16.5-13.1l-10.9-0.8c-1.3,1.5-2.7,3.8-2.6,6.3c0.1,6.3,4.8,7.8,10.8,8
		c6.9,0.2,10.5,1.1,10.4,2.7c0,1.6-4.3,32.5-4.3,32.5l8,0.4C661.6,325.1,667,290.6,666.7,289.1z"/>
	<g>
		<g>
			<path class="st6" d="M724.3,239.8c0,0,1.8-3.1,2.5-4.8c0.7-1.7,3.3-7.5,4.2-6.9c0.9,0.6-1.5,5.5-1.5,5.5s2.1-6.1,3.3-5.8
				c1.2,0.3-2,6-2,6s2.5-5.4,3.2-4.8s0.1,1.7-2,5.7c0,0,1.9-3.4,2.6-2.6c0.7,0.8-1.6,3.9-2.4,4.6c-0.8,0.7-4.8,3.9-5.7,5.2
				C726.5,242,724.3,241.2,724.3,239.8z"/>
			<path class="st18" d="M728.1,235.8c0,0,2.8-1.6,3.6-1c0.8,0.6,0,1.3-2.9,2.2c0,0-1,1.3-1.7,1.4
				C727.1,238.5,726.3,236.7,728.1,235.8z"/>
		</g>
		<path class="st6" d="M669.8,237.2c0,0-1.1-2.2-1.1-2.8s0.3-1.3,0.3-2.2s1.2-2.9,0.9-3.4c-0.2-0.6-1-0.4-1.6,0.9
			c-0.7,1.4-0.5,2.2-1,1.8c-0.5-0.4-1.9-2.1-2.3-2.8c-0.4-0.7-1.8-2.1-2.2-1.9c-0.4,0.2-0.5,0.6,2,4c0,0-2.7-4.1-3.5-3.4
			c-0.6,0.5,2.1,3.5,2.5,4c0,0-2.5-3.1-3.2-2.4c-0.7,0.7,2.7,3.3,2.7,3.3s-2.5-2-2.9-1.4s1.1,1.9,2.6,2.7c1.5,0.8,1.8,1,2.2,1.6
			c0.4,0.5,1.3,2.7,1.3,2.7S668.8,238.6,669.8,237.2z"/>
		<path class="st7" d="M700.3,223.2l-5.2,0.8c0,0-0.3,9.6-4.4,10.4c0,0-1.5,15.8,4,14.5c5.4-1.3,8.3-15,8.3-15
			S698.3,232.5,700.3,223.2z"/>
		<path class="st6" d="M700.7,216c0,0-5.6-2.3-7.8-0.9s-2,6.2-2.4,8.4c-0.5,3.4,1,6.8,1.9,7.1s7.9-1.6,9-6.6
			C702.5,219,702,216.8,700.7,216z"/>
		<path class="st3" d="M692.3,321.1c0,0,0.8,4.6,0.2,5.7c-0.6,1.1-12.3,0.6-13-0.2c-0.7-0.8,0.5-2.1,1.1-2.4c0.6-0.3,7-3.1,7-3.1
			L692.3,321.1z"/>
		<path class="st3" d="M707.5,321.1h-4.1c0,0-0.3,3.4,0,4.2s4.1,5.5,6.1,5.5c1.1,0,2.4,0,2.6-1c0.2-0.8-0.6-2.5-1.3-3.4
			C709.4,324.5,707.5,321.1,707.5,321.1z"/>
		<path class="st3" d="M699.7,224.7c0,0-2,1.1-3.3,1.2s-2.1-1.4-3.9-1c-1.8,0.4-2,0.5-2,0.5s-1,6.5,1.5,6.3c2.5-0.2,6.6-2.8,8.1-4.5
			c0,0,1.5,0,2.5-1.5c1-1.5,2.3-6.2,1.4-9c-0.9-2.8-4.7-3.9-6.3-2.6c0,0-1.2-1-3.5-0.9c-2.3,0.1-2.8,1.4-3.8,2.1
			c-1,0.7-2,0.7-2.3,0.1c0,0-0.7,1.2,0.5,3.2s2.7,1.7,4.6,1.2s4.4-2.4,4.4-2.4s-0.1,4,0.9,5.5c0,0,0.4,0.2,0.5,0s0-2.2,1.2-1.8
			C701.5,221.6,700.7,223.9,699.7,224.7z"/>
		<path class="st2" d="M692.1,226.7c0,0,1.5,0.5,3.1,0.1c0,0-0.9,1.2-1.9,1C692.2,227.6,692.1,226.7,692.1,226.7z"/>
		<path class="st2" d="M701.5,232.4l-4.8,2.6l-3.7-2.2c0,0-1.9,5.7-1.3,12.1c0.5,6.4,1.6,11.1,5.9,5.1
			C701.9,243.9,703.6,234.4,701.5,232.4z"/>
		<path class="st2" d="M701.5,232.4l-4.8,2.6l-3.7-2.2c0,0-1.9,5.7-1.3,12.1c0.5,6.4,1.6,11.1,5.9,5.1
			C701.9,243.9,703.6,234.4,701.5,232.4z"/>
		<path class="st3" d="M695.8,237.9c0,0-2.6,13.9-2.3,14.2c0.1-0.2,1.7,3.8,2.6,0c0.7-2.9,0.8-13.8,0.9-14c0,0,1.3-1.4,2.1-2.1
			c0.5-0.5,1-0.9,1.5-1.4c0.1-0.2,0.2-0.5,0.3-0.7c-0.1,0.2-0.1,0.3-0.2,0.5c0.3-0.6,0.6-1.1,1-1.6c-0.1-0.1-0.2-0.2-0.2-0.3
			l-4.8,2.6l-3.7-2.2c0,0-0.1,0.3-0.3,0.9c0.4,0.5,0.7,1.1,1,1.6C694.2,235.9,695.8,237.9,695.8,237.9z"/>
		<path class="st3" d="M686,258.2l14.7-0.3c0,0,2.2,3.6,2.7,14.2c0.3,7.2,0.6,9.2,1.3,18.8c0.5,6.5,2.8,31.3,2.8,31.3h-7.8
			c0,0-3.3-28.3-3.5-29.9c-0.1-0.5-2-15.5-2-15.5s0.3,13.6,0.3,15.1s0.3,29.5,0.3,29.5h-8.2c0,0-0.9-23.7-1-29.1
			C685.6,283.5,684.9,261.1,686,258.2z"/>
		<path class="st9" d="M693,232.7c0,0-5.2,1-7.2,1.7c0,0,0.6,11.9-1.4,14.9l-0.9,26c0,0,11.3-0.1,11.7-14.2
			c0.4-14.1,0.3-14.7,0.3-14.7L693,232.7z"/>
		<g>
			<path class="st3" d="M694.6,248c0,0.2-0.2,0.4-0.4,0.4s-0.4-0.2-0.4-0.4s0.2-0.4,0.4-0.4C694.4,247.5,694.6,247.7,694.6,248z"/>
			<path class="st3" d="M694.3,252.2c0,0.2-0.2,0.4-0.4,0.4s-0.4-0.2-0.4-0.4s0.2-0.4,0.4-0.4C694.1,251.8,694.3,252,694.3,252.2z"
				/>
			<path class="st3" d="M694,256.5c0,0.2-0.2,0.4-0.4,0.4s-0.4-0.2-0.4-0.4c0-0.2,0.2-0.4,0.4-0.4C693.8,256,694,256.2,694,256.5z"
				/>
			<path class="st3" d="M693.8,260.7c0,0.2-0.2,0.4-0.4,0.4s-0.4-0.2-0.4-0.4s0.2-0.4,0.4-0.4S693.8,260.5,693.8,260.7z"/>
		</g>
		<path class="st9" d="M708.5,235.7l-7-3.3l-5.9,14l-1.3,16.3c0,0,0.2,14.4,12.4,12.6l-1-26.3C705.7,248.9,705.6,239.3,708.5,235.7z
			"/>
		<path class="st9" d="M728.2,241.5l-4.3-3.1c0,0-7.9,12.5-8.3,12.1c-0.5-0.4-4.2-13.5-7.1-14.8c0,0-1.4,1-2.3,4.1
			c-0.6,2.1-0.7,5.6-0.5,9c0,0,7.4,11,10.1,10.7C718.4,259,728.2,241.5,728.2,241.5z"/>
		<path class="st9" d="M670,235.7l-4.8,1.9c0,0,6.6,23.9,10.4,21.8c3.8-2.1,8.9-9.5,8.9-9.5s1.4-2.3,2-5.9c0.5-3.2,0.2-7.6-0.6-9.5
			c0,0-3.4,2-6.2,7.7c-2.8,5.6-3.7,7.2-3.9,6.9C675.5,248.6,670,235.7,670,235.7z"/>
		<path class="st19" d="M692.8,233.5c0,0.1,1.2,4.6,1.2,4.6l2.7-2l2.3,2.1l2.4-5.1l-0.4-0.5l-2.9,1.6l-1.4,1.3l-3.2-2.4l-0.2-0.1
			L692.8,233.5z"/>
		<polygon class="st2" points="696.7,234.6 693.4,232 692.6,232.8 693.9,237.3 696.7,235.2 699.3,237.6 701.7,232.5 700.5,231.2 		
			"/>
	</g>
	<g>
		<rect x="661.3" y="273.4" class="st20" width="24.9" height="1.5"/>
		<path class="st3" d="M686.5,274.1H661c-0.8,0-1.5-0.7-1.5-1.5v-17.6c0-0.8,0.7-1.5,1.5-1.5h25.5c0.8,0,1.5,0.7,1.5,1.5v17.6
			C688,273.5,687.3,274.1,686.5,274.1z"/>
		<path class="st21" d="M660.3,272.7v-17.6c0-0.8,0.7-1.5,1.5-1.5h-1.3c-0.8,0-1.5,0.7-1.5,1.5v17.6c0,0.8,0.7,1.5,1.5,1.5h1.3
			C661,274.1,660.3,273.5,660.3,272.7z"/>
		<path class="st2" d="M675.2,263.9c0,0.8-0.6,1.4-1.4,1.4s-1.4-0.6-1.4-1.4c0-0.8,0.6-1.4,1.4-1.4
			C674.5,262.4,675.2,263.1,675.2,263.9z"/>
	</g>
	<g>
		<rect x="701.9" y="272.2" class="st3" width="18.7" height="2.7"/>
		<polygon class="st3" points="696.8,254.8 702.9,273.7 703.8,273.3 697.8,254.5 		"/>
	</g>
	<path class="st3" d="M730.4,320.7c0,0-5,2.5-7.7,3.6c-2.2,0.9-1.8,2.9,0.8,3.7s4.6,0.3,5.2-0.5c0.6-0.8,2-0.5,2.5-0.2
		c0.5,0.3,4.8-0.7,5-1.7s-0.8-5.3-0.8-5.3L730.4,320.7z"/>
	<path class="st9" d="M756.4,274.4l-8.5,0.1c0,0-20.7,7.7-23.4,9.8s4.5,37.4,4.5,37.4l7-0.7c0,0-1.7-31.7-0.3-33
		c1.3-1.4,23.3-3.4,24.7-3.8C761.7,283.8,759.8,278.9,756.4,274.4z"/>
	<path class="st10" d="M756.4,274.4l-8.5,0.1c0,0-20.7,7.7-23.4,9.8s4.5,37.4,4.5,37.4l7-0.7c0,0-1.7-31.7-0.3-33
		c1.3-1.4,23.3-3.4,24.7-3.8C761.7,283.8,759.8,278.9,756.4,274.4z"/>
	<g>
		<polygon class="st15" points="773.6,255.5 765,289.9 761.4,289 768.8,254.3 		"/>
		<g>
			<rect x="734.3" y="290.9" class="st15" width="1.4" height="37.6"/>
			<rect x="760.7" y="290.9" class="st15" width="1.4" height="37.6"/>
		</g>
		<rect x="730.5" y="287.5" class="st3" width="35.5" height="4.9"/>
	</g>
	<path class="st7" d="M754.1,238.3l-4.9,1c0,0,1.4,6,0,9.3c0,0,2.7,1,7.1-2.3C756.4,246.3,753.6,243.9,754.1,238.3z"/>
	<path class="st6" d="M754.9,231.4c0,0-5.4-2-6.9-1.3c-1.5,0.7-3.2,1.8-2.9,2.9c0.3,1.1,0.5,4.3,0.1,5.4s-1,1.7-0.8,2.1
		s1,0.1,1.2,0.5c0.2,0.4,1.5,3.3,2.2,3.7c0.7,0.4,4.9-1.1,6.9-5.6C756.7,234.5,756.1,232.1,754.9,231.4z"/>
	<path class="st3" d="M724.3,321.2c0,0-6.5,2.3-9.2,3.4c-2.2,0.9-1.8,2.9,0.7,3.7s4.6,0.3,5.2-0.5c0.6-0.8,2-0.5,2.5-0.2
		s4.8-0.7,5-1.6s-0.3-3.8-0.3-3.8L724.3,321.2z"/>
	<path class="st3" d="M751.7,229.7c0,0,1.8-2.1,3.9-0.9c2.1,1.2,1.3,3.1,1.7,4c1,2,0.8,3.6-0.2,5.4c-1.1,2-0.5,3.3-2.3,3.5
		s-2.5-0.3-2.5-0.3s0.7-1.4,0.7-2.9c0,0,1.6-0.9,1.4-2.3s-1.9-1.6-2.4-0.1c-0.5,1.4,0.3,2.4-0.7,3.1c0,0-0.6,0.2-0.6-1.4
		s0.3-2.9,0.3-2.9s-3.8,2-6.7,0s-0.9-5.2,1.2-5.9C749,227.7,751.7,229.7,751.7,229.7z"/>
	<path class="st9" d="M758.7,273.1l-9.5,1.9c0,0-21.5,7.8-24.2,9.8s-3.2,36.9-3.2,36.9l7.1,0.7c0,0,3-33.1,4.7-34.1
		c1.4-0.8,24.6-0.8,26-0.8C761.7,287.5,763.5,277.9,758.7,273.1z"/>
	<path class="st6" d="M719.4,270.7c0,0-1.4,0.2-1.7,0.2s-4.2-2.4-4.7-2.1c-0.4,0.3-4.5,3.2-4.3,3.8c0.1,0.6,1.2,0.2,3.4-1.6
		c0,0-2.8,2.1-2.3,2.6c0.5,0.5,3-1.8,3-1.8s-2.6,2-2,2.4c0.6,0.5,2.9-1.9,2.9-1.9s-1.8,1.8-1.5,2.1c0.2,0.3,1.4-0.2,2.6-1.4
		c0,0,0.2-0.1,0.9,0.2c0.6,0.4,4.6-0.3,4.6-0.3L719.4,270.7z"/>
	<path class="st4" d="M718.4,269.5l1.2,4.5c0,0,19.6-4.4,21.6-5.9s13.8-14.3,12.1-17.9c-1.7-3.6-4-2.7-5.4-0.7
		c-1.4,2-8.2,10.7-9.2,11.7C737.8,262.3,718.4,269.5,718.4,269.5z"/>
	<path class="st6" d="M721.7,272.8c0,0-1.5,0.2-1.8,0.2s-4.4-2.4-4.9-2.1s-4.7,3.2-4.6,3.8c0.1,0.6,1.3,0.2,3.5-1.6
		c0,0-3,2.1-2.4,2.6c0.6,0.5,3.2-1.8,3.2-1.8s-2.7,2-2.1,2.4c0.6,0.5,3-1.9,3-1.9s-1.9,1.8-1.6,2.1s1.4-0.2,2.7-1.4
		c0,0,0.2-0.1,0.9,0.2c0.7,0.4,4.8-0.3,4.8-0.3L721.7,272.8z"/>
	<path class="st4" d="M756,245.9c0,0-4.4,2.2-6.9,2.1c0,0-4,8.4-4.3,10.7c-0.3,2.3,0.5,17,0.5,17s9.7,2.1,15.4-0.8
		c0,0-1.5-9.6-0.9-14.4C760.5,255.7,760,249.5,756,245.9z"/>
	<path class="st5" d="M754.1,261.6c1-2.2,4.8-5.8,2.9-8.3c-1.5-2-2.6-2.2-4.3-0.2c-1.6,1.8-3,3.8-4.8,5.3c-0.9,0.8-2,1.5-3,2.2
		c0,4.6,0.5,15.1,0.5,15.1s3.2,0.7,6.9,0.7C750.2,272,752.1,266.3,754.1,261.6z"/>
	<path class="st4" d="M720.6,271.6l1.3,4.5c0,0,20.6-4.4,22.7-5.9s14.5-14.3,12.7-17.9c-1.8-3.6-4.2-2.7-5.7-0.7s-8.6,10.7-9.6,11.7
		S720.6,271.6,720.6,271.6z"/>
	<g>
		<path class="st6" d="M622.8,248.1c0,0,1.4-2.8,1.8-4.2s2.3-6.6,3.1-6.1s-0.9,4.7-0.9,4.7s1.4-5.3,2.4-5.1c1,0.2-1.2,5.2-1.2,5.2
			s1.8-4.7,2.4-4.3c0.6,0.4,0.2,1.4-1.4,4.9c0,0,1.4-3,2-2.4s-1.1,3.4-1.7,4.1c-0.7,0.7-3.8,3.6-4.5,4.8
			C624.8,249.8,623,249.3,622.8,248.1z"/>
		<path class="st18" d="M625.8,244.5c0,0,2.3-1.5,3-1.1c0.7,0.5,0.1,1.1-2.3,2.1c0,0-0.8,1.2-1.3,1.3
			C625.1,246.8,624.3,245.3,625.8,244.5z"/>
	</g>
	<path class="st4" d="M622.6,246.7c0,0-8,13.5-8.5,13.4c-0.4-0.1-12.1-3.6-16.1-6.6c-1.1-0.9-1.1,8.4,0,9s18.2,3.6,18.9,3.1
		c0.8-0.5,9.4-16.7,9.4-16.7L622.6,246.7z"/>
	<path class="st5" d="M618.1,263.2c-5.8,3.7-19.4-7-21-7.4c-0.2,2.5,0.1,6.3,0.9,6.7c1.1,0.6,18.2,3.6,18.9,3.1
		c0.2-0.1,0.9-1.3,1.8-2.9C618.6,262.9,618.4,263.1,618.1,263.2z"/>
	<path class="st7" d="M598.2,247.6c-0.5-0.1-3-5.3-4-6.3c-0.5,3.5-2.7,11.9-2.7,11.9c2.6,2.8,7.8,1.1,7.8,1.1
		C598.4,252.5,598,248.9,598.2,247.6z"/>
	<path class="st6" d="M596.8,234.8c0,0,5,1.1,6,2.6c1,1.5,1,5.3,1.5,6.3c0.3,0.6,0.6,1.1,0.8,1.5c0.1,0.3-0.2,0.5-0.7,0.7
		c-0.2,0.1-0.4,0.3-0.5,0.5c-0.3,0.9-1.1,3.3-2,3.6c-1,0.4-6.2,0.2-7.7-4.2C592.7,241.2,593.5,233.8,596.8,234.8z"/>
	<path class="st6" d="M617.3,321.1l-3.4-0.6c0,0-0.2,3.2-0.5,4c0,0,3.8,1.8,7.7,0.4c0,0-2.5-1.1-3.1-1.8
		C617.4,322.3,617.3,321.1,617.3,321.1z"/>
	<path class="st3" d="M613.8,323c0,0,2.6,1.8,6.6,1.5c0,0,4.9,2.6,5.2,3.2c0.4,0.9-1.7,1-5,0.9c-2.8-0.1-2.6-0.3-3.2-0.9
		c-0.6-0.6-1.3-1.2-1.3-1.2s-0.3,0.4-0.5,2l-1.3-0.2c0,0,0.2-1.6-0.5-2.4C613.3,325.4,612.8,324.1,613.8,323z"/>
	<path class="st6" d="M603.7,320.3l-2.6-0.7c0,0-1.5,2.5-1.9,3.2c0,0,3.3,2.6,7.4,2.1c0,0-2.2-1.6-2.7-2.5
		C603.5,321.5,603.7,320.3,603.7,320.3z"/>
	<path class="st3" d="M599.5,322.2c0,0,2.4,2,6.4,2.1c0,0,4.6,3,4.8,3.7c0.3,1-1.8,0.8-5.1,0.4c-2.8-0.4-2.6-0.5-3.1-1.1
		c-0.5-0.6-1.2-1.3-1.2-1.3s-0.3,0.3-0.7,1.9l-1.2-0.3c0,0,0.3-1.5-0.2-2.4C598.8,324.5,598.4,323.1,599.5,322.2z"/>
	<path class="st13" d="M591.9,273.6l6.7,4.7c0,0,21.7,4.2,24.4,6.2s-17.5,38.6-17.5,38.6l-6.3-2.1c0,0,15.1-32.4,13.8-33.8
		c-1.4-1.4-23.7-3.4-25.1-3.8C586.5,283.1,588.4,278.1,591.9,273.6z"/>
	<path class="st12" d="M591.9,273.6l6.7,4.7c0,0,21.7,4.2,24.4,6.2s-17.5,38.6-17.5,38.6l-6.3-2.1c0,0,15.1-32.4,13.8-33.8
		c-1.4-1.4-23.7-3.4-25.1-3.8C586.5,283.1,588.4,278.1,591.9,273.6z"/>
	<path class="st13" d="M589.8,275.7l8.7,0.7c0,0,22.4,5.6,25.1,7.7c2.8,2.1-4,38.6-4,38.6l-6.8-1.7c0,0,3.9-32.4,2.2-33.4
		c-1.5-0.9-24.9-0.9-26.4-0.9C586.5,286.8,585,280.6,589.8,275.7z"/>
	<path class="st4" d="M592.3,251.5c0,0,3.6,1.6,6.9,2.6c0,0,4.1,8,4.3,10.3c0.3,2.2,2,14.5,2,14.5s-12.6,3.6-18.4,0.8
		c0,0,1.8-8.7,1.1-13.5C587.7,261.5,588.2,255.1,592.3,251.5z"/>
	<path class="st5" d="M593.8,265.2c0,4,2.6,6,5.3,8.6c1.6,1.5,3.1,3.5,4,5.8c1.4-0.4,2.5-0.6,2.5-0.6s-1-6.6-1.6-11
		c-2.7-1.2-4.1-3.8-5-6.5c-0.5-1.6-0.8-2.6-1.8-3.8c-3,0.1-3.1,3.5-3.3,6.8C593.8,264.8,593.8,265,593.8,265.2z"/>
	<g>
		<polygon class="st15" points="574.1,254.4 582.8,289.3 586.4,288.4 578.9,253.2 		"/>
		<g>
			<rect x="612.5" y="290.3" class="st15" width="1.5" height="38.1"/>
			<rect x="585.7" y="290.3" class="st15" width="1.5" height="38.1"/>
		</g>
		<rect x="581.8" y="286.8" class="st3" width="36" height="5"/>
	</g>
	<path class="st3" d="M603.4,239c1.6-0.6,0.9-3.2-0.2-3.9c-2-1.4-4.5-2.4-6.9-2.3c-3,0.1-5.7,2.4-7.4,4.6c-1.2,1.6-1.2,3.3-2.1,5
		c-0.8,1.6-2.6,2.4-3.6,3.8c-1,1.3-1,3.1-0.6,4.6c0.3,1.2,0.6,2.3,0.4,3.6c-0.2,1.6-1.5,2.7-1.9,4.2c-0.4,1.4-0.2,2.9-0.1,4.3
		c0.2,1.8,1,3.4,2.6,4.4c3.1,2.1,7.3-0.4,7.8-3.9c0.2-1.6-0.2-2.9-0.4-4.4c-0.2-1.9,0.5-3,2.1-4c1.4-0.9,2-1.4,1.9-3.1
		c-0.1-1.1-0.2-2.3,0-3.5c0.2-1.3,0.8-1.6-0.2-2.5c-0.7-0.7-1.3-1.4-0.8-2.4c0.5-0.8,1.2-1.1,1.9-0.3c0.2,0.2,1,1.9,1.2,0.9
		c0.1-0.3-0.3-0.8-0.3-1.1c0-0.5,0-0.8,0.3-1.1c0.5-0.5,1.3-0.8,1.8-1.4c0.7-0.7,0.7-1.6,1.7-1.9c0.5-0.2,1-0.2,1.5-0.1
		C602.3,238.4,603.2,239.1,603.4,239z"/>
	<g>
		<rect x="628.2" y="272.2" class="st3" width="18.7" height="2.7"/>
		<polygon class="st3" points="652,254.8 645.9,273.7 644.9,273.3 651,254.5 		"/>
	</g>
	<g>
		<rect x="619.6" y="274.9" class="st16" width="1.2" height="55.1"/>
		<rect x="743.4" y="274.9" class="st16" width="1.2" height="55.1"/>
		<rect x="619.6" y="274.9" class="st16" width="125" height="1.5"/>
	</g>
	<path class="st6" d="M625.9,271.3c0,0,1.6-0.1,2-0.2c0.3-0.1,4.2-3.4,4.8-3.1c0.5,0.2,5.6,2.5,5.6,3.1s-1.3,0.5-4.1-1
		c0,0,3.6,1.6,3.1,2.3c-0.5,0.7-3.7-1.3-3.7-1.3s3.2,1.5,2.7,2.2c-0.6,0.6-3.6-1.4-3.6-1.4s2.3,1.5,2.1,1.9
		c-0.2,0.4-1.5,0.1-3.1-0.9c0,0-0.3-0.1-0.9,0.4c-0.6,0.5-5.2,0.6-5.2,0.6L625.9,271.3z"/>
	<path class="st4" d="M627,270.4l0,4.3c0,0-15.2,0.9-19.4-0.5c-4.2-1.4-13.2-12.9-14-14.8c-0.9-2.3,2.6-7.9,6.1-2.8
		c3.5,5.1,9.8,12,10.1,12.2C610.1,269,627,270.4,627,270.4z"/>
</g>
<g>
	<g>
		<path class="st3" d="M851.2,249.9c0,0-9.4-0.7-12.3-5.5c-2.9-4.8,0-8.1,2.4-9.6c2.4-1.5,5.9-3.9,6-6.1s0-7.6,5.6-9.4
			c1.9-0.6,4.1-0.5,5.9,0.3c0.9,0.4,1.7,1.1,2.3,1.9c0.6,0.8,0.8,1.4,1,2.4c0.2,0.8,0.2,1.6,0.1,2.4c0,1.3-0.3,2.6-0.4,3.9
			c-0.1,1.1-0.2,2.2-0.2,3.3c0,0.8,0.1,1.4,0.4,2.2c0.2,0.7,0.6,1.4,0.9,2.1c0.3,0.7,0.8,2.1,1,2.8c0.3,1.2,0.1,1.9,0,3.1
			c-0.3,3.1-2.6,5.1-5.5,5.8C856.2,250,853.6,250.1,851.2,249.9z"/>
		<path class="st7" d="M857.9,232.2c-1.7-0.2-3-1-3.8-2.1c0.2,1.2,0.3,3.9-1.7,6.8c0,0,0,6.2,4,5.6s3.5-5.3,3.5-5.3
			S857.6,235.7,857.9,232.2z"/>
		<path class="st6" d="M853.7,222.3c0,0,3.8-1.6,5.3-0.8s2.1,3,2.5,5.2c0.5,2.2-0.7,6.5-2.8,7.2c-2.5,0.8-4.7-1.2-5.5-3.8
			c0,0-2.2-0.5-2-3.4C851.4,223.7,852.1,222,853.7,222.3z"/>
		<path class="st4" d="M859.1,236.5c0,0-1.7,2.9-2.5,3.5s-4.3-4-4.3-4s-4,2.4-7.3,3.3c0,0-1.2,12.2-1.9,15c0,0-1.3,15.4-1.3,17.4
			h20.7c-0.6-10.4,3.5-19.5,3.5-19.5s-1.2-9.4-0.5-11.7C865.4,240.5,860.8,237.8,859.1,236.5z"/>
		<path class="st5" d="M866,252.2c0,0-0.3-2.3-0.5-4.9c-1.4,2.8-2.2,5.8-3.4,8.7c-1.3,3.5-5.2,10.1-10,8.6c-3.8-1.2-5-5.6-5.6-9.1
			c-0.3-1.9-0.6-3.9-0.8-5.8c-0.2-1.6-0.2-4.2-1.1-5.6c-0.5,0.4-0.7,2-0.8,2.7c-0.1,1-0.1,2-0.2,3.1c0,0.5,0,1-0.1,1.6
			c0,0.4-0.1,0.9-0.2,1.3c0,0.3-0.1,0.6-0.1,0.9c0,0,0,0.1,0,0.1c0,0.1,0,0.2-0.1,0.3c0,0-1.3,15.4-1.3,17.4h20.7
			C861.8,261.2,866,252.2,866,252.2z"/>
		<polygon class="st2" points="852.5,235.7 850.3,237.1 853.7,242.7 856.6,240.2 859.5,242.5 860.8,237.5 858.8,236.1 856.7,239.6 
					"/>
		<path class="st3" d="M859.4,222.7c0,0-0.7,2.6-3,3.2c-1,0.3-1.6,1.2-1.5,2.2c0,0.4-1,0.5-1.1,0.2s0.2-1.9-1.1-2.2
			c-1.3-0.3-1.4,1.7-0.2,2.9c0,0,2.2,2.4,1.2,5c-1,2.6-3.2,5.2-7.4,5.6c-4.2,0.5-6,6.4-6,6.4s-4.2-5,0.5-8.6s8-5.7,8-8
			c0-2.4,1.5-8.8,5.5-9.2C858.4,219.8,859.4,222.7,859.4,222.7z"/>
		<path class="st3" d="M862.1,226.4c0,0-1.8,0.2-3.6-2.4c-1.9-2.6-1.9-4.7-1.9-4.7S863.3,220.4,862.1,226.4z"/>
		<g>
			<g>
				<rect x="841.7" y="283.7" class="st15" width="1.7" height="44.3"/>
				<rect x="872.8" y="283.7" class="st15" width="1.7" height="44.3"/>
			</g>
			<g>
				<rect x="893.3" y="283.7" class="st15" width="1.7" height="44.3"/>
				<rect x="924.4" y="283.7" class="st15" width="1.7" height="44.3"/>
			</g>
			<rect x="837.1" y="281.1" class="st3" width="41.8" height="4.3"/>
		</g>
		<path class="st3" d="M864.4,310.4c0,0-3.8,4.2-3.7,4.7s8.8,12,10,11.9c1.3-0.1,1.3-2.3,1-3.1s-4-12.2-4-12.2L864.4,310.4z"/>
		<path class="st3" d="M853.7,310.5c0,0-4.2,3.9-4.1,4.4s7.7,12.7,9,12.7s1.5-2.1,1.3-3s-2.9-12.5-2.9-12.5L853.7,310.5z"/>
		<path class="st7" d="M870.5,284.2c-1.5,7-6.5,26.5-6.5,26.5l4.4,2.6c0,0,7.5-19.1,9.9-29.2H870.5z"/>
		<path class="st6" d="M861.7,284.2c-2.2,7.2-8.4,26.7-8.4,26.7l3.9,2.7c0,0,10.4-19.4,14.3-29.4L861.7,284.2L861.7,284.2z"/>
		<path class="st9" d="M877.2,277.1c-3.2-1.8-6.6-3.5-10.2-4.4c0,0,0,0,0,0c-1.4-0.4-4-3.7-4.3-6.5c-2.1,0.8-4.6,0.8-7.1,0.9
			c-3.5,0.1-7.6,0.6-11-0.2c-0.8-0.2-1.5-0.5-2.1-0.8c0,0-3.8,3.5-3.8,9.8c0,3.2,0.9,4.6,4.4,5.7c1.9,0.6,11.7-0.3,14.4,0.8
			c2.4,1,2,3.6,1.6,5.4c11.6,1.7,17.6,0.5,19.7,0C879.4,285.4,880.9,279.2,877.2,277.1z"/>
		<path class="st3" d="M909,266c0,0-9.8,0-13.3-2.4s-4.1-11.5,1-15.2s6.1-4.9,6.3-7.4c0.2-2.5,0.2-8.1,6.7-8.1
			c6.4,0,5.8,5.2,6.3,8.5c0.3,2.3,3.5,5.7,6.3,7.9C925.9,252.1,929.9,268.3,909,266z"/>
		<path class="st7" d="M912,242.8c-0.5,0.2-1.1,0.3-1.7,0.3c-1.2,0-2.1-0.3-2.9-0.8c-0.3,1.9,0.6,4-1.2,4.5c0,0,0.1,8,3.3,8
			s3.6-8,3.6-8S911.5,246.4,912,242.8z"/>
		<path class="st6" d="M914,240.8c-0.3-0.7-1.2-0.4-1.2-0.4c0.2-1.9,0.2-5,0.2-5l-3.3-0.4l-3.3,0.4c0,0,0,3,0.2,5
			c0,0-0.8-0.4-1.2,0.4c-0.6,1.2,0.8,2,0.8,2c0,0,0.9,4.1,3.6,4.3c2.6-0.2,3.6-4.3,3.6-4.3C913.2,242.8,914.6,242,914,240.8z"/>
		<g>
			<path class="st3" d="M913.5,235.4c0,0-1.8,4.5-6.6,4.2c0,0,0.2,0.8-0.1,1.5c0,0-0.7-1.9-1.4-1.5c-0.8,0.4-1,1.1-1,1.1
				s-0.7-5.4,2.8-6.6C910.5,233,913.5,235.4,913.5,235.4z"/>
			<path class="st3" d="M911.9,235c0,0.2-0.1,0.5-0.1,0.8c0,0.5,0,1.1,0,1.6c0.7,0.8,1,2.2,0.9,2.5c0,0.3,0,0.8,0.2,1.3
				c0,0,0.7-1.9,1.4-1.5c0.8,0.4,1,1.1,1,1.1S915.1,234.9,911.9,235z"/>
		</g>
		<path class="st15" d="M919,259.4c-1-2.8-0.5-10.4-0.5-10.4c-1.2-0.4-5.9-2.6-5.9-2.6l-3,7.3l-3.2-7.3c0,0-3.8,1.8-5,2.2
			c0,0-0.2,7.9-1.2,10.7c0,0,3,4.8,0,15.7h9.4h9.4C916,264.2,919,259.4,919,259.4z"/>
		<path class="st17" d="M919,259.4c-0.2-0.7-0.3-3.2-0.4-4.4c-0.5,1.2-1,3.8-1.4,5c-1.5,4-3.2,5.6-7.7,5.7c-3.6,0.1-6.9-5.7-7.3-6.8
			c-0.4-1.2-1-2.4-1.4-3.6c-0.1,1.6-0.2,3.1-0.5,4c0,0,3,4.8,0,15.7H919C916,264.2,919,259.4,919,259.4z"/>
		<path class="st6" d="M918.3,267.4c0,0-1.6,0.8-2.1,0.7c-0.6-0.2-0.8-0.5-1.9-0.1s-1.4,0.5-2,0.9c-0.5,0.3-1.6,0.9-1.3,1.5
			c0.3,0.6,1.5-0.2,1.6-0.3c0.1,0,0.5-0.2,0.5-0.2s-1.3,0.6-1.1,1c0.2,0.4,0.9,0.4,1.3,0.1c0.4-0.2,0.8-0.5,0.8-0.5
			s-0.9,0.6-0.7,0.8c0.2,0.2,0.8,0.3,1.2,0s0.7-0.5,0.7-0.5s-0.8,0.5-0.1,0.8s1.3-0.5,1.7-0.8c0.4-0.3,0.9-0.9,1.1-1
			c0.2-0.1,1.9-0.7,1.9-0.7L918.3,267.4z"/>
		<path class="st3" d="M911,270.5l-4.6-7.5c0,0-1.4-0.7-1.3,0.9l5.5,7C910.6,270.9,912.2,272.6,911,270.5z"/>
		<path class="st6" d="M900.7,267.4c0,0,1.6,0.9,1.9,0.8c0.2-0.1,3.7-2.1,4.4-1.7c0.7,0.4,1.2,1.2,1.5,1.6c0.3,0.5,1.5,1.9,1,2.4
			s-1.3-1.1-1.6-1.4c-0.3-0.3-1.2-1.3-1.7-1.2c0,0,1,0.5,1.4,1.1s1.5,1.5,1.1,2.1c-0.4,0.6-1.7-1.2-1.8-1.3s-1-0.8-1.4-0.9
			c0,0,1.1,0.8,1.2,0.9c0.1,0.1,1.4,1.1,1.2,1.5c-0.2,0.3-0.6,0.5-1.6-0.6c-0.4-0.4-1.2-0.8-1.2-0.8s0.9,0.5,1.1,0.7
			s0.7,0.7,0.3,0.9c-0.4,0.1-0.9-0.2-1.4-0.5c-0.5-0.4-1.2-0.5-1.8-0.4c-0.6,0.1-3.6-0.9-3.6-0.9L900.7,267.4z"/>
		<path class="st6" d="M908.7,266.7c0,0,1.3,0.4,1.5,1s-0.2,0.9-0.5,0.7L908.7,266.7z"/>
		<path class="st15" d="M901.5,248.7c-1.1,0.3-3.7,1.3-6.1,7.9c-2.2,6-3.1,10.9-2.9,12.4c0.3,2.5,10,2.4,10,2.4l0.7-3.9
			c0,0-4.4-1.4-4.2-2c0.1-0.7,1.4-3.4,1.9-5C900.9,260.3,902.2,248.5,901.5,248.7z"/>
		<path class="st15" d="M918.3,249c0.8,0.1,3.6,1.4,6.1,7.6c2.4,5.9,3.1,10.9,2.9,12.4c-0.3,2.5-10,2.4-10,2.4l-0.7-3.9
			c0,0,4.4-1.4,4.2-2c-0.1-0.7-1.4-3.4-1.9-5C918.9,260.3,917.5,248.9,918.3,249z"/>
		<path class="st6" d="M887.9,265.6l-1.2,2.2c0,0,1.8,1.1,2.2,1.5c0.4,0.4,1,1.9,2.9,2.3c1.9,0.4,2.2,0.8,2.7,0.3s-0.8-1.2-1.6-1.4
			c-0.8-0.2-1.4-0.3-1.3-0.5c0.1-0.2,0.8-0.2,2.2,0c1.4,0.2,3.2,0.9,3.6,0.6s-1.1-1.5-2.7-1.6c-1.2-0.1-1.8-0.3-1.8-0.3
			s1.6,0.1,2,0.2s2.7,0.8,3.2,0.3c0.5-0.4-1.5-1.2-3-1.4c-1.4-0.1-1.9,0-1.9,0s1.6-0.1,2.1-0.1s2,0.5,2.2,0.1c0.2-0.4-1.1-0.9-2.2-1
			s-2.1,0.1-2.1,0.1s1.5-0.3,2-0.3c0.5,0,1.4,0.1,1.4-0.1c0-0.2-0.3-0.7-2.2-0.7c-1,0-1.9,0.2-2.5,0.4
			C891,266.4,888.2,265.6,887.9,265.6z"/>
		<g>
			<rect x="824.5" y="271.1" class="st16" width="1.3" height="57.3"/>
			<rect x="937" y="271.1" class="st16" width="1.3" height="57.3"/>
			<rect x="822.2" y="271.1" class="st16" width="118.3" height="1.5"/>
		</g>
		<path class="st22" d="M921.8,284.5c0-0.2,0-0.4,0-0.5c0-5.5-2.9-9.1-2.9-9.1h-18.8c0,0-2.6,3.6-2.6,9.1c0,0.1,0,0.3,0,0.5H921.8z"
			/>
		<path class="st3" d="M904.2,311.4c0,0-4.7,5.6-5.3,6.9c-0.5,1.2,0.8,2.7,2.7,2.1c1.8-0.6,7.3-6.8,7-7.6s-1.5-1.6-1.5-1.6
			L904.2,311.4z"/>
		<g>
			<rect x="888.8" y="281.1" class="st3" width="41.3" height="4.3"/>
		</g>
		<path class="st6" d="M909.1,283.4c-0.2-2.2,0.2-6.2-3.4-6.2c-5.5,0-4.3,7.9-4.3,8.8c0.9,8.7,2.8,25.4,2.8,25.4l2.9-0.4
			C907.2,311,909.2,284.4,909.1,283.4z"/>
		<path class="st3" d="M915.2,311.4c0,0,4.7,5.6,5.3,6.9c0.5,1.2-0.8,2.7-2.7,2.1c-1.8-0.6-7.3-6.8-7-7.6s1.5-1.6,1.5-1.6
			L915.2,311.4z"/>
		<path class="st6" d="M910.3,283.4c0.2-2.2-0.2-6.2,3.4-6.2c5.5,0,4.3,7.9,4.3,8.8c-0.9,8.7-2.8,25.4-2.8,25.4l-2.9-0.4
			C912.2,311,910.2,284.4,910.3,283.4z"/>
		<path class="st4" d="M889,264.8l-1.2,4.5c0,0-16-2.9-17.5-5.1c-1.5-2.2-5.3-11.7-5.3-11.7s-2.2-7.2,0.3-12c0,0,2.4,0.9,3.7,4.6
			c0.9,2.4,5.1,12.6,6,13.6C876,259.7,889,264.8,889,264.8z"/>
		<path class="st6" d="M845.8,268.2c0,0,1.4,0.2,1.7,0.2s4.3-2.1,4.7-1.8s4.3,3.2,4.2,3.7c-0.1,0.5-1.2,0.2-3.3-1.6
			c0,0,2.7,2.1,2.2,2.5s-2.9-1.8-2.9-1.8s2.5,2,1.8,2.4c-0.6,0.4-2.8-1.9-2.8-1.9s1.7,1.7,1.4,2s-1.3-0.2-2.5-1.4
			c0,0-0.2-0.1-0.9,0.2c-0.7,0.3-4.5-0.5-4.5-0.5L845.8,268.2z"/>
		<path class="st4" d="M847.1,268.3l-1.3,2.9c0,0-12.1-5.2-12.5-10.1s7-21.3,12.2-21.2c0,0-0.9,11-2.3,14c0,0-2.9,4.6-2.9,5.7
			C840.4,260.7,847.1,268.3,847.1,268.3z"/>
	</g>
</g>
<g>
	<g>
		<path class="st4" d="M542.9,162.1h-54.6c-1.5,0-2.7-1.2-2.7-2.7v-35.2c0-1.5,1.2-2.7,2.7-2.7h54.6c1.5,0,2.7,1.2,2.7,2.7v35.2
			C545.7,160.8,544.4,162.1,542.9,162.1z"/>
		<rect x="488.3" y="124.6" class="st15" width="54.6" height="34.2"/>
	</g>
	<polygon class="st13" points="507.5,134.6 507.5,151.4 523.8,143 	"/>
</g>
<g>
	<path class="st7" d="M496,235.2h-2.7h-2.7c0,0-0.8,7.4-2.2,8.3c0,0-1.8,8.8,4.9,8.8c8.1,0,4.9-8.8,4.9-8.8
		C496.8,242.6,496,235.2,496,235.2z"/>
	<g>
		<path class="st6" d="M500.3,236.6c-0.8-0.9-1.7,0.4-1.7,0.4s1.2-4.9,0-7c-1.2-2.1-5.3-1-5.3-1s-4-1.1-5.3,1c-1.2,2.1,0,7,0,7
			s-0.9-1.3-1.7-0.4c-0.8,0.9,1.2,3.1,1.7,3.3c0,0,2.9,5.4,5.2,5.4s5.2-5.4,5.2-5.4C499.1,239.7,501.1,237.5,500.3,236.6z"/>
		<path class="st3" d="M492.4,231c0,0-3,0.5-3.4,2.2c-0.2,0.8,0,1.7,0.2,2.4c0.1,0.4,0.4,2.6,0.3,2.7s-0.3,0-0.4-0.1
			c-0.4-0.3-0.7-0.8-1-1.2c-0.6-0.9-1.4-0.7-1.6-0.2c0,0-0.7-8,2.7-8.3C492.4,228.2,492.4,231,492.4,231z"/>
		<path class="st3" d="M494.4,231c0,0,3,0.5,3.4,2.2c0.2,0.8,0,1.7-0.2,2.4c-0.1,0.4-0.4,2.6-0.3,2.7s0.3,0,0.4-0.1
			c0.4-0.3,0.7-0.8,1-1.2c0.6-0.9,1.4-0.7,1.6-0.2c0,0,0.7-8-2.7-8.3C494.4,228.2,494.4,231,494.4,231z"/>
		<path class="st3" d="M498.9,229c0,0,0.1-1.3-1.4-2.1c-1.5-0.8-4.5-1.2-6.9,0s-3.1,1.5-3.8,1.1c-0.7-0.4-0.2-0.8-0.2-0.8
			s-1.5,0-1.5,2.4c0.1,2.4,3,5.4,6.9,5.4C497.9,234.9,499.8,230.8,498.9,229z"/>
	</g>
	<path class="st15" d="M498.2,243.5c-0.3,7.4-4.9,6.7-4.9,6.7s-4.6,0.8-4.9-6.7c0,0-7.4,2.1-11,4.5c0,0,1.5,6.5,1.6,13.7l4.2,16.4
		l10.1,0.5l10.1-0.5l4.2-16.4c0.1-7.2,1.6-13.7,1.6-13.7C505.6,245.5,498.2,243.5,498.2,243.5z"/>
	<path class="st17" d="M506.8,252.2c-4.6,2.4-6.8,8.1-11.3,10.9c-4.6,2.9-7.9-2.9-10.1-5.9c-1.9-2.6-4.4-4.7-7.4-5.9
		c0.4,2.6,0.9,6.4,1,10.4l4.2,16.4l10.1,0.5l10.1-0.5l4.2-16.4c0-3.9,0.5-7.6,1-10.2C507.9,251.7,507.4,252,506.8,252.2z"/>
	<path class="st4" d="M511.9,284.7c0-5.8-7.1-9.5-7.1-9.5h-24c0,0-7.1,3.8-7.1,9.5c0,0.9,0.2,2.5,0.6,4.4h8
		c-0.3,0.6-0.6,1.1-0.9,1.6c-0.1,0.1-0.1,0.3-0.2,0.4c1.2,0,2.4,0,3.6,0c0.7,0,1.5,0,2.2,0c0.4,0,1.3,0.2,1.1-0.5
		c-0.2-0.9-0.7-1.4-0.2-2.4c0.4-0.8,1.6-1.4,2.5-1.4c0.2,0,0.4,0,0.6,0c1.2,0,2.5,0,3.8,0c0.5,0,0.9,0.1,1.4,0.2
		c0.4,0.1,0.9,0.1,1.2,0.5c0.3,0.5,0.3,1.3,0.4,1.8c0,0.2-0.1,1.7-0.1,1.7h8.1c-0.6-0.7-1-1.4-1.4-2h7.1
		C511.7,287.2,511.9,285.6,511.9,284.7z"/>
	<path class="st5" d="M511.9,284.7c0-5.8-7.1-9.5-7.1-9.5h-24c0,0-7.1,3.8-7.1,9.5c0,0.9,0.2,2.5,0.6,4.4h8
		c-0.3,0.6-0.6,1.1-0.9,1.6c-0.1,0.1-0.1,0.3-0.2,0.4h6.9c0.2,0-0.3-1-0.3-1.1c-0.2-0.4-0.2-0.8-0.1-1.2c0.1-0.4,0.5-0.8,0.8-1.1
		c1.1-1,2.7-1,4.1-1c1.4,0,2.9-0.1,4.1,0.7c0.2,0.2,0.4,0.3,0.6,0.5c0.8,1,0.4,2,0.3,3.1h8.1c-0.6-0.7-1-1.4-1.4-2h7.1
		C511.7,287.2,511.9,285.6,511.9,284.7z"/>
	<path class="st15" d="M477.3,247.9c0,0-9.1,19.8-8.5,22.4c0.2,0.7,11.3,7.4,16.5,6.4l2.1-0.4C487.5,276.4,479.7,247.8,477.3,247.9z
		"/>
	<path class="st15" d="M509.2,247.9c0,0,9.1,19.8,8.5,22.4c-0.2,0.7-11.3,7.4-16.5,6.4l-2.1-0.4C499,276.4,506.8,247.8,509.2,247.9z
		"/>
	<path class="st17" d="M480.9,254.9c0,0.9-0.1,1.9-0.4,2.9c-0.8,3.6-2.1,7.3-0.8,10.9c1,2.8,2.6,5.5,4.1,8.2c0.5,0,1,0,1.5-0.1
		l2.1-0.4C487.5,276.4,484,263.3,480.9,254.9z"/>
	<path class="st17" d="M504.2,276.7c0.7-1.7,1.1-3.4,1-5.3c-0.1-3.6-0.1-7.3-0.1-11c0-1.6,0.1-3.1,0.2-4.6c-3,8.4-6.3,20.5-6.3,20.5
		l2.1,0.4C502,276.9,503,276.9,504.2,276.7z"/>
	<path class="st3" d="M484.1,318.9c0,0-5.8,6.9-6.5,8.4c-0.7,1.5,1,3.3,3.2,2.6c2.3-0.8,3.6-2.3,3.6-3.3s1.2-1.5,1.8-1.6
		s3.5-3.5,3.2-4.5c-0.3-0.9-1.8-2-1.8-2L484.1,318.9z"/>
	<path class="st3" d="M501.5,318.9c0,0,5.8,6.9,6.5,8.4c0.7,1.5-1,3.3-3.2,2.6c-2.3-0.8-3.6-2.3-3.6-3.3s-1.2-1.5-1.8-1.6
		s-3.5-3.5-3.2-4.5c0.3-0.9,1.8-2,1.8-2L501.5,318.9z"/>
	<g>
		<rect x="470.2" y="290.1" class="st15" width="1.9" height="39.9"/>
		<rect x="513.9" y="290.1" class="st15" width="1.9" height="39.9"/>
		<rect x="466.5" y="286.9" class="st3" width="51.8" height="5.1"/>
	</g>
	<path class="st4" d="M486.2,284.4c-0.7-1.6-0.8-5.1-5.5-5.1c-9,0-6.9,7.2-6.7,8.3c1.4,10.7,7.9,32,7.9,32h9c0,0-3.3-26.2-3.8-30.2
		C487,288.8,486.6,285.5,486.2,284.4z"/>
	<path class="st4" d="M499.5,284.4c0.7-1.6,0.8-5.1,5.5-5.1c9,0,6.9,7.2,6.7,8.3c-1.4,10.7-7.9,32-7.9,32h-9c0,0,3.3-26.2,3.8-30.2
		C498.7,288.8,499,285.5,499.5,284.4z"/>
	<g>
		<rect x="480.1" y="276.6" class="st3" width="26.4" height="1.6"/>
		<path class="st3" d="M510.3,258.3h-34.1c0,0-1.8,0-1.5,2.1c0.3,2.1,4.6,16.4,5.5,16.4c1.6,0,13.1,0,13.1,0s11.5,0,13.1,0
			c0.8,0,5.2-14.4,5.5-16.4C512.2,258.3,510.3,258.3,510.3,258.3z"/>
		<path class="st2" d="M494.7,268.3c0,0.8-0.6,1.4-1.4,1.4s-1.4-0.6-1.4-1.4s0.6-1.4,1.4-1.4S494.7,267.5,494.7,268.3z"/>
	</g>
</g>
<g>
	<polygon class="st12" points="238,286.5 238,288.4 260.1,288.4 260.1,293.5 238,293.5 238,295.5 285.2,295.5 285.2,286.5 	"/>
	<path class="st4" d="M290.9,296.8L290.9,296.8h1.4v-1.4h-49.6v6.2h49.6v-1.4h-1.4l0,0c-0.5,0-0.9-0.8-0.9-1.8
		C290,297.6,290.4,296.9,290.9,296.8z"/>
	<rect x="263.8" y="286.5" class="st13" width="21.4" height="9"/>
	<rect x="242.7" y="295.5" class="st5" width="27.4" height="6.2"/>
	<path class="st23" d="M238,288.4L238,288.4c0.7,0.1,1.2,1.2,1.2,2.5c0,1.4-0.5,2.5-1.2,2.5v0h23.8v-5.1L238,288.4L238,288.4z"/>
	<polygon class="st13" points="290.5,267.7 290.5,265.7 268.4,265.7 268.4,260.6 290.5,260.6 290.5,258.7 243.3,258.7 243.3,267.7 	
		"/>
	<rect x="243.3" y="258.7" class="st12" width="21.4" height="9"/>
	<path class="st23" d="M290.5,265.7L290.5,265.7c-0.7-0.1-1.2-1.2-1.2-2.5c0-1.4,0.5-2.5,1.2-2.5v0h-23.8v5.1L290.5,265.7
		L290.5,265.7z"/>
	<polygon class="st13" points="296.1,326.8 296.1,325.4 263.7,325.4 263.7,321.8 296.1,321.8 296.1,320.5 227.1,320.5 227.1,326.8 	
		"/>
	<rect x="227.1" y="320.5" class="st12" width="31.3" height="6.3"/>
	<path class="st23" d="M296.1,325.4L296.1,325.4c-1,0-1.8-0.8-1.8-1.8c0-1,0.8-1.7,1.8-1.8l0,0h-34.8v3.6H296.1z"/>
	<polygon class="st24" points="230.8,301.7 230.8,303.6 254.5,303.6 254.5,308.7 230.8,308.7 230.8,310.7 281.4,310.7 281.4,301.7 	
		"/>
	<rect x="258.4" y="301.7" class="st25" width="29.1" height="9"/>
	<path class="st23" d="M230.8,303.6L230.8,303.6c0.7,0.1,1.3,1.2,1.3,2.5c0,1.4-0.6,2.5-1.3,2.5v0h53.4v-5.1L230.8,303.6
		L230.8,303.6z"/>
	<path class="st23" d="M258.5,303.6h-27.7v0c0.7,0.1,1.3,1.2,1.3,2.5c0,1.4-0.6,2.5-1.3,2.5v0h27.7V303.6z"/>
	<polygon class="st24" points="233.4,277.5 233.4,279.4 253.1,279.4 253.1,284.5 233.4,284.5 233.4,286.5 275.3,286.5 275.3,277.5 	
		"/>
	<rect x="256.3" y="277.5" class="st25" width="24.1" height="9"/>
	<path class="st23" d="M233.4,279.4L233.4,279.4c0.6,0.1,1.1,1.2,1.1,2.5c0,1.4-0.5,2.5-1.1,2.5v0h44.3v-5.1L233.4,279.4
		L233.4,279.4z"/>
	<path class="st23" d="M256.4,279.4h-23v0c0.6,0.1,1.1,1.2,1.1,2.5c0,1.4-0.5,2.5-1.1,2.5v0h23V279.4z"/>
	<polygon class="st15" points="293.2,320.5 293.2,318.3 266.4,318.3 266.4,312.8 293.2,312.8 293.2,310.7 239.4,310.7 239.4,320.5 	
		"/>
	<rect x="233.2" y="310.7" class="st17" width="29.2" height="9.8"/>
	<path class="st23" d="M293.2,318.3L293.2,318.3c-0.7-0.1-1.3-1.3-1.3-2.8s0.6-2.7,1.3-2.8v0h-56.6v5.5H293.2z"/>
	<path class="st23" d="M262.4,318.3h30.8v0c-0.7-0.1-1.3-1.3-1.3-2.8s0.6-2.7,1.3-2.8v0h-30.8V318.3L262.4,318.3z"/>
	<polygon class="st15" points="284.1,277.5 284.1,275.4 263.3,275.4 263.3,269.8 284.1,269.8 284.1,267.7 242.4,267.7 242.4,277.5 	
		"/>
	<rect x="237.5" y="267.7" class="st17" width="22.7" height="9.8"/>
	<path class="st23" d="M284.1,275.4L284.1,275.4c-0.6-0.1-1-1.3-1-2.8c0-1.5,0.4-2.7,1-2.8v0h-44.1v5.5H284.1z"/>
	<path class="st23" d="M260.2,275.4h24v0c-0.6-0.1-1-1.3-1-2.8s0.4-2.7,1-2.8v0h-24V275.4z"/>
	<polygon class="st23" points="275.6,300.3 290.9,300.3 290.9,300.3 	"/>
	<path class="st23" d="M290,298.6c0-0.9,0.4-1.7,0.9-1.8l0,0h-19.1v3.5h19.1l0,0C290.4,300.3,290,299.5,290,298.6z"/>
	<path class="st4" d="M285.6,251.3L285.6,251.3l1.1,0v-2.1h-36.5v9.5h36.5v-2.1h-1.1l0,0c-0.4-0.1-0.6-1.2-0.6-2.7
		C284.9,252.5,285.2,251.3,285.6,251.3z"/>
	<rect x="250.1" y="249.2" class="st5" width="20.1" height="9.5"/>
	<path class="st23" d="M284.9,254c0-1.4,0.3-2.6,0.6-2.7v0h-14v5.4h14l0,0C285.2,256.6,284.9,255.4,284.9,254z"/>
</g>
<g>
	<g>
		<g>
			<path class="st2" d="M668.1,155h-26.3l-14.1,11.5L634,155h-6.5c-1.1,0-2-0.9-2-2v-26.1c0-1.1,0.9-2,2-2h40.5c1.1,0,2,0.9,2,2V153
				C670.1,154.1,669.2,155,668.1,155z"/>
		</g>
	</g>
	<g>
		<path class="st3" d="M653.9,136.1c0,3.5-4.4,4.5-4.4,5.9v0.5h-4.4v-1.3c0-1.9,3.3-2.9,3.3-5c0-0.9-0.6-1.8-1.7-1.8
			c-1.4,0-1.7,1.1-1.7,2.1c0,0.2,0,0.5,0,0.7h-4.7c0-0.3-0.1-0.6-0.1-1c0-3.3,3-5.4,7-5.4C651.3,130.9,653.9,132.9,653.9,136.1z
			 M649.9,148.8h-5.1V144h5.1V148.8z"/>
	</g>
</g>
<g>
	<g>
		<g>
			<path class="st2" d="M188.2,161.7h-4.8l4.1,8.9l-9-8.9h-15.8c-0.7,0-1.3-0.6-1.3-1.3v-16.4c0-0.7,0.6-1.3,1.3-1.3h25.5
				c0.7,0,1.3,0.6,1.3,1.3v16.4C189.5,161.2,188.9,161.7,188.2,161.7z"/>
		</g>
	</g>
	<g>
		<path class="st3" d="M179.3,149.8c0,2.2-2.8,2.8-2.8,3.7v0.3h-2.8V153c0-1.2,2.1-1.9,2.1-3.1c0-0.6-0.4-1.1-1.1-1.1
			c-0.9,0-1.1,0.7-1.1,1.4c0,0.1,0,0.3,0,0.4h-3c0-0.2-0.1-0.4-0.1-0.6c0-2.1,1.9-3.4,4.4-3.4C177.6,146.5,179.3,147.8,179.3,149.8z
			 M176.8,157.8h-3.2v-3h3.2V157.8z"/>
	</g>
</g>
<g>
	<g>
		<g>
			<path class="st2" d="M437.7,157.6h-20.1l-10.8,8.8l4.8-8.8h-4.9c-0.9,0-1.5-0.7-1.5-1.6v-19.9c0-0.9,0.7-1.6,1.5-1.6h30.9
				c0.9,0,1.5,0.7,1.5,1.6V156C439.3,156.9,438.6,157.6,437.7,157.6z"/>
		</g>
	</g>
	<g>
		<path d="M418,151.4h-3.8v-3.5h3.8V151.4z"/>
		<path d="M424,151.4h-3.8v-3.5h3.8V151.4z"/>
		<path d="M429.9,151.4h-3.8v-3.5h3.8V151.4z"/>
	</g>
</g>
<g>
	<g>
		<g>
			<path class="st2" d="M1045.4,160.7H1029l-8.8,7.1l3.9-7.1h-4c-0.7,0-1.3-0.6-1.3-1.3v-16.2c0-0.7,0.6-1.3,1.3-1.3h25.2
				c0.7,0,1.3,0.6,1.3,1.3v16.2C1046.6,160.1,1046.1,160.7,1045.4,160.7z"/>
		</g>
	</g>
	<g>
		<path d="M1031.4,157.2v-2.5h2.5v2.5H1031.4z M1032.2,153.9l-0.8-8.9h2.7l-1,8.9H1032.2z"/>
	</g>
</g>
<g>
	<path class="st2" d="M833,82.9h4.4v7.6c-2.1,1.4-5.4,2.5-8.1,2.5c-5.9,0-10.4-4.3-10.4-9.9s4.6-9.8,10.7-9.8c2.9,0,6,1.1,8,2.9
		l-2.9,3.5c-1.4-1.3-3.3-2.1-5.1-2.1c-3.1,0-5.5,2.4-5.5,5.6c0,3.2,2.4,5.6,5.5,5.6c1,0,2.2-0.3,3.3-0.9L833,82.9L833,82.9z"/>
	<path class="st2" d="M860.5,83.1c0,5.7-4.5,9.9-10.5,9.9s-10.5-4.3-10.5-9.9c0-5.7,4.5-9.8,10.5-9.8
		C856,73.2,860.5,77.4,860.5,83.1z M844.7,83.1c0,3.2,2.5,5.6,5.3,5.6c2.9,0,5.2-2.4,5.2-5.6c0-3.2-2.3-5.5-5.2-5.5
		C847.1,77.6,844.7,79.9,844.7,83.1z"/>
	<path class="st2" d="M875.4,89.3H867l-1.4,3.4h-5.2l8.3-19.4h5.2l8.1,19.4h-5.4L875.4,89.3z M873.9,85.5l-2.7-6.9l-2.7,6.9H873.9z"
		/>
	<path class="st2" d="M888.9,73.4v15.1h8.2v4.3h-13.3V73.4L888.9,73.4L888.9,73.4z"/>
</g>
<g>
	<path class="st2" d="M787.4,395l-5-7.5l-2.5,2.8v4.7h-5.1v-19.4h5.1v8.1l7.3-8.1h5.9l-7.2,8l7.6,11.4L787.4,395L787.4,395z"/>
	<path class="st2" d="M800,375.6l8.8,11.7v-11.7h4.7V395h-4.4l-8.8-11.6V395h-4.7v-19.4H800z"/>
	<path class="st2" d="M837.1,385.3c0,5.7-4.5,9.9-10.5,9.9s-10.5-4.3-10.5-9.9c0-5.6,4.5-9.8,10.5-9.8
		C832.6,375.5,837.1,379.7,837.1,385.3z M821.3,385.4c0,3.2,2.5,5.6,5.3,5.6c2.9,0,5.2-2.4,5.2-5.6c0-3.2-2.3-5.5-5.2-5.5
		C823.7,379.8,821.3,382.2,821.3,385.4z"/>
	<path class="st2" d="M842.8,375.6l3.7,14l3.7-14h5l3.7,14l3.7-14h5.2l-6.4,19.4H856l-3.5-13.1l-3.6,13.1h-5.2l-6.4-19.4H842.8z"/>
	<path class="st2" d="M874.4,375.6v15.1h8.2v4.3h-13.3v-19.4H874.4z"/>
	<path class="st2" d="M900.2,375.6v4H890v3.6h9.2v4l-9.2,0v3.6h10.5v4h-15.6v-19.4L900.2,375.6L900.2,375.6z"/>
	<path class="st2" d="M922.3,385.3c0,5.8-4.2,9.7-10.5,9.7h-8.2v-19.4h8.4C918.1,375.6,922.3,379.6,922.3,385.3z M917.1,385.4
		c0-3.4-2.2-5.6-5.3-5.6h-3.2v11.2h3.4C915,390.9,917.1,388.7,917.1,385.4z"/>
	<path class="st2" d="M937.3,385.1h4.4v7.6c-2.1,1.4-5.4,2.5-8.1,2.5c-5.9,0-10.4-4.3-10.4-9.9s4.6-9.9,10.7-9.9c2.9,0,6,1.1,8,2.9
		l-2.9,3.5c-1.4-1.3-3.3-2.1-5.1-2.1c-3.1,0-5.5,2.4-5.5,5.6c0,3.2,2.4,5.6,5.5,5.6c1,0,2.2-0.3,3.3-0.9L937.3,385.1L937.3,385.1z"
		/>
	<path class="st2" d="M960.3,375.6v4h-10.2v3.6h9.2v4l-9.2,0v3.6h10.5v4H945v-19.4L960.3,375.6L960.3,375.6z"/>
</g>
<polygon class="st26" points="596.7,135.1 592.3,135.1 592.3,130.6 589.8,130.6 589.8,135.1 585.3,135.1 585.3,137.6 589.8,137.6 
	589.8,142 592.3,142 592.3,137.6 596.7,137.6 "/>
<polygon class="st26" points="167.2,211.9 162.7,211.9 162.7,207.4 160.2,207.4 160.2,211.9 155.8,211.9 155.8,214.4 160.2,214.4 
	160.2,218.8 162.7,218.8 162.7,214.4 167.2,214.4 "/>
<polygon class="st26" points="185,264.3 180.6,264.3 180.6,259.9 178.1,259.9 178.1,264.3 173.6,264.3 173.6,266.8 178.1,266.8 
	178.1,271.3 180.6,271.3 180.6,266.8 185,266.8 "/>
<polygon class="st26" points="388.3,151.3 383.8,151.3 383.8,146.9 381.3,146.9 381.3,151.3 376.9,151.3 376.9,153.8 381.3,153.8 
	381.3,158.2 383.8,158.2 383.8,153.8 388.3,153.8 "/>
<polygon class="st26" points="245.1,123.5 240.7,123.5 240.7,119.1 238.2,119.1 238.2,123.5 233.8,123.5 233.8,126 238.2,126 
	238.2,130.5 240.7,130.5 240.7,126 245.1,126 "/>
<polygon class="st26" points="788.6,117.9 784.1,117.9 784.1,113.4 781.6,113.4 781.6,117.9 777.2,117.9 777.2,120.4 781.6,120.4 
	781.6,124.8 784.1,124.8 784.1,120.4 788.6,120.4 "/>
<polygon class="st26" points="993.8,147.4 989.3,147.4 989.3,143 986.8,143 986.8,147.4 982.4,147.4 982.4,149.9 986.8,149.9 
	986.8,154.4 989.3,154.4 989.3,149.9 993.8,149.9 "/>
<polygon class="st26" points="1042.8,220 1038.3,220 1038.3,215.6 1035.8,215.6 1035.8,220 1031.4,220 1031.4,222.5 1035.8,222.5 
	1035.8,226.9 1038.3,226.9 1038.3,222.5 1042.8,222.5 "/>
<polygon class="st26" points="1030.3,288.2 1025.9,288.2 1025.9,283.8 1023.4,283.8 1023.4,288.2 1018.9,288.2 1018.9,290.7 
	1023.4,290.7 1023.4,295.2 1025.9,295.2 1025.9,290.7 1030.3,290.7 "/>
<circle class="st2" cx="621.3" cy="82.5" r="15.9"/>
<path class="st2" d="M215.2,91.5c-5.5,0-11-0.1-16.4,0.1c-3.8,0.2-7.4,0-11.2-0.4c-1.4-0.1-2.5-0.3-3.7-0.8
	c-1.1-0.4-2.6-0.9-0.9-1.5c3.7-1.3,8,1.3,11.5-0.3c-0.4-0.6-1.7-1.6-1.1-2.4c0.4-0.6,2.6-0.8,3.2-0.9c2.5-0.2,5.6-0.2,7.8,0.7
	c2.7,1.1,5.5,0.9,8.4,0.9c1.3,0,6.9-0.6,7.6,1.1c0.4,1-1.1,0.6,0.2,1.5c0.9,0.7,2.5,0.5,3.5,0.5c0.7,0,2.5-0.2,3,0.5
	c0.7,0.9-0.4,1.4-1.1,1.5C224.2,92.4,216.8,91.5,215.2,91.5z"/>
<path class="st2" d="M1021,73c-5.5,0-11-0.1-16.4,0.1c-3.8,0.2-7.5,0-11.2-0.4c-1.3-0.1-2.5-0.3-3.7-0.8c-1.1-0.4-2.5-0.9-0.9-1.5
	c3.7-1.3,8,1.3,11.5-0.3c-0.4-0.6-1.7-1.6-1.1-2.4c0.4-0.6,2.6-0.8,3.2-0.9c2.5-0.2,5.6-0.2,7.8,0.7c2.7,1.1,5.5,0.9,8.4,0.9
	c1.3,0,6.9-0.6,7.6,1.1c0.4,1-1.1,0.6,0.2,1.5c0.9,0.7,2.5,0.5,3.5,0.5c0.7,0,2.5-0.2,3,0.5c0.7,0.9-0.4,1.4-1.1,1.5
	C1030,73.9,1022.6,73,1021,73z"/>
<path class="st2" d="M757.2,69.5c-5.5,0-11-0.1-16.4,0.1c-3.8,0.2-7.5,0-11.2-0.4c-1.3-0.1-2.5-0.3-3.7-0.8
	c-1.1-0.4-2.5-0.9-0.9-1.5c3.7-1.3,8,1.3,11.5-0.3c-0.4-0.6-1.7-1.6-1.1-2.4c0.4-0.6,2.6-0.8,3.2-0.9c2.5-0.2,5.6-0.2,7.8,0.7
	c2.7,1.1,5.5,0.9,8.4,0.9c1.3,0,6.9-0.6,7.6,1.1c0.4,1-1.1,0.6,0.2,1.5c0.9,0.7,2.5,0.5,3.5,0.5c0.7,0,2.5-0.2,3,0.5
	c0.7,0.9-0.4,1.4-1.1,1.5C766.2,70.4,758.8,69.5,757.2,69.5z"/>
<path class="st2" d="M237.6,72.7c2.7,0.1,5.4,0.4,8.2,0.2c1.2-0.1,2.3,0,3.5,0.1c2.6,0.4,4.9,0,7.4-0.2c1.5-0.1,3.3,0.1,4.7-0.6
	c2.8-1.4-1.2-2.1-2.4-1.9c-2.2,0.2-4.1,0.1-6-0.9c-1-0.5-2-0.5-3.1-0.6c-0.9-0.1-2.4-0.5-3.2-0.1c-0.4,0.2-0.5,0.6-1,0.8
	c-0.7,0.3-1.5,0.2-2.2,0.3c-1.3,0.1-2.5-0.3-3.7-0.5c-0.9-0.1-7.2-1-7.6,0c-0.2,0.8,2.3,0.7,2.1,1.4c-0.1,0.5-2.9,0.5-3.4,0.6
	c-0.7,0.1-3.5,0-3.5,1c2,0.6,3.9,0.7,6,0.7c0.1,0,0.2,0,0.3,0h0C235.1,72.7,236.3,72.6,237.6,72.7z"/>
<path class="st2" d="M952.9,94.7c2.7,0.1,5.5,0.4,8.2,0.2c1.2-0.1,2.3,0,3.5,0.1c2.6,0.4,4.9,0,7.4-0.2c1.5-0.1,3.3,0.1,4.7-0.6
	c2.8-1.4-1.2-2.1-2.4-1.9c-2.2,0.2-4.1,0.1-6-0.9c-1-0.5-2-0.5-3.1-0.6c-0.9-0.1-2.4-0.5-3.2-0.1c-0.4,0.2-0.5,0.6-1,0.8
	c-0.7,0.3-1.5,0.2-2.2,0.3c-1.3,0.1-2.5-0.3-3.7-0.5c-0.9-0.1-7.2-1-7.6,0c-0.2,0.8,2.3,0.7,2.1,1.4c-0.1,0.5-2.9,0.5-3.3,0.6
	c-0.7,0.1-3.5,0-3.5,1c2,0.6,3.9,0.7,6,0.7c0.1,0,0.2,0,0.3,0h0C950.4,94.7,951.7,94.6,952.9,94.7z"/>
<g>
	<path class="st27" d="M996,292.2c-2.1-0.9-3.7-1.7-3.3-5.1c0.2-1.6,0.8-2.8,1.9-3.7c0.9-0.8,1.4-1.1,1.7-2.4c0.4-2-0.1-3.6,0.8-5.5
		c1-2,3.2-1.8,4.2-3.6c0.9-1.6,1.3-3.3,3.3-3.9c1.8-0.5,2.8,1,2.2,2.5c-0.3,0.9-1.1,1.7-1.3,2.6c-0.2,0.9,0.2,1.6,0.7,2.4
		c1.1,1.8,1.6,4-0.5,5.9c-1.2,1.1-2.2,2.1-1.6,3.9c0.7,2.1,1.1,3.4-0.8,5.2c-1.4,1.4-2.7,1.3-4.3,1.4c-1.4,0.1-3.3,0.7-4.5-0.2
		L996,292.2z"/>
	<path class="st4" d="M991.4,292.2c-1.5,1.6-2.8,2.9-5.1,1c-1.2-1-1.7-2.2-1.6-3.9c0-1.3,0.1-2-0.7-3c-1.3-1.6-3.2-2.2-4-4.3
		c-0.9-2.2,1.1-3.7,0.4-5.7c-0.6-1.8-1.8-3.4-0.7-4.9c0.9-1.2,2.9-0.5,3.6,0.9c0.4,0.8,0.5,1.7,1,2.5c0.5,0.8,1.2,1,2,1.2
		c1.7,0.6,3.2,1.6,3.3,3.8c0.1,1.3,0.2,2.4,1.5,3c1.3,0.6,2.1,1,2.3,3c0.2,1.5-0.3,2.4-0.8,3.7c-0.5,1.2-0.9,3-2,3.7L991.4,292.2z"
		/>
	<g>
		<path class="st2" d="M997.5,290c-0.1,0-0.1,0-0.2,0c-0.1,0-0.2-0.1-0.1-0.2s0.1-0.2,0.2-0.1c1.1,0.1,2.2-0.9,2.8-1.7
			c0.5-0.7,0.4-1.3,0.4-2.1l0-0.6c-0.1-1.7-0.2-3.1,1.1-4.5c1.5-1.5,1.8-2.4,1.7-4.4c0-0.2,0-0.3,0-0.5c0-0.7-0.1-1.4,0-2
			c0.1-0.4,0.2-0.7,0.4-1c0.2-0.4,0.4-0.8,0.4-1.2c0-0.1,0.1-0.2,0.2-0.2l0,0c0.1,0,0.2,0.1,0.2,0.2c0,0.5-0.2,0.9-0.4,1.4
			c-0.2,0.3-0.3,0.6-0.4,0.9c-0.1,0.6-0.1,1.3,0,1.9c0,0.2,0,0.4,0,0.5c0.1,2.1-0.3,3.1-1.8,4.6c-1.2,1.2-1.1,2.5-1,4.2l0,0.6
			c0.1,0.8,0.1,1.5-0.5,2.3C999.8,289.1,998.7,290,997.5,290z"/>
	</g>
	<g>
		<path class="st2" d="M1001.2,285.5c-0.2,0-0.4-0.1-0.7-0.4c-0.1-0.1,0-0.2,0-0.2s0.2,0,0.2,0c0.2,0.2,0.3,0.3,0.5,0.2
			c0.7-0.2,1.4-1.6,1.5-2.2c0.3-1.6,0.8-2.4,2.3-3c0.1,0,0.2,0,0.2,0.1s0,0.2-0.1,0.2c-1.5,0.6-1.8,1.3-2.1,2.8
			c-0.1,0.5-0.9,2.2-1.8,2.4C1001.4,285.5,1001.3,285.5,1001.2,285.5z"/>
	</g>
	<g>
		<path class="st2" d="M991.5,291.3c-0.3,0-0.6-0.1-0.8-0.2c-1.1-0.6-1.6-2.3-2.1-3.9c-0.2-0.8-0.4-1.5-0.7-2
			c-0.7-1.3-1.5-2.1-2.8-3.1c-1.6-1.2-2-2-2.2-3.9c-0.2-1.5-0.5-3.1-1.2-4c0-0.1,0-0.2,0-0.2c0.1,0,0.2,0,0.2,0
			c0.7,1,1.1,2.6,1.3,4.2c0.3,1.8,0.6,2.6,2.1,3.7c1.2,0.8,2.1,1.7,2.9,3.2c0.3,0.5,0.5,1.2,0.7,2c0.4,1.5,0.9,3.1,2,3.7
			c0.4,0.2,0.8,0.2,1.3,0.1c0.1,0,0.2,0,0.2,0.1c0,0.1,0,0.2-0.1,0.2C992,291.3,991.7,291.3,991.5,291.3z"/>
	</g>
	<g>
		<path class="st2" d="M986.5,283.4C986.5,283.4,986.5,283.4,986.5,283.4c-0.2-0.1-0.2-0.2-0.1-0.3c0.5-0.6,0.2-1.6-0.1-2.6
			c-0.3-0.9-0.5-1.8-0.3-2.6c0-0.1,0.1-0.1,0.2-0.1c0.1,0,0.1,0.1,0.1,0.2c-0.2,0.7,0.1,1.5,0.3,2.4c0.3,1.1,0.6,2.2,0.1,2.9
			C986.6,283.4,986.6,283.4,986.5,283.4z"/>
	</g>
	<g>
		<path class="st2" d="M988.2,285.6C988.1,285.6,988.1,285.6,988.2,285.6c-0.3-0.1-0.5-0.2-0.6-0.3c-0.3-0.2-0.5-0.3-0.9-0.3
			c-0.2,0-0.4,0-0.6,0c-0.4,0-0.8,0.1-1.3-0.2c-0.7-0.4-1.4-1-2.2-1.9c-0.1-0.1-0.2-0.3-0.4-0.5c-0.2-0.3-0.6-0.9-0.7-0.9
			c-0.1,0-0.1-0.1-0.1-0.2c0-0.1,0.1-0.1,0.2-0.1c0.2,0,0.5,0.4,0.9,1c0.1,0.2,0.3,0.4,0.4,0.5c0.5,0.6,1.3,1.4,2.1,1.8
			c0.4,0.2,0.8,0.2,1.1,0.1c0.2,0,0.4,0,0.6,0c0.5,0,0.8,0.2,1,0.4c0.2,0.1,0.3,0.2,0.5,0.3c0.1,0,0.1,0.1,0.1,0.2
			C988.3,285.5,988.2,285.6,988.2,285.6z"/>
	</g>
	<path class="st28" d="M990.8,292.5c-2.3-1.9-5-3.2-4.4-6.9c0.5-3,4-3.8,2.9-7.1c-0.7-2.1-2.5-4.5-1.9-6.9c0.7-2.5,3.9-1.5,4.6-3.8
		c0.6-2-1.5-4.2,0.4-5.9c1.6-1.4,4.5-0.1,5.4,1.6c1.1,2.1-0.7,3.6-0.4,5.7c0.2,1.3,1.5,1.5,2.4,2.3c0.9,0.7,1.8,1.9,2.2,3
		c1.2,3.4-2.2,4.6-3.2,7.2c-1,2.5,2.3,3.2,2.6,5.7c0.3,2.7-2.7,4.9-5,5.3C994.7,292.9,992.2,293.7,990.8,292.5z"/>
	<g>
		<path class="st2" d="M993.4,293.3C993.4,293.3,993.4,293.3,993.4,293.3c-0.1,0-0.2-0.1-0.2-0.2c0-0.1,1.8-6.3,0.3-13
			c-1-4.2-0.1-7.2,0.6-9.5c0.4-1.4,0.8-2.6,0.6-3.7c0-0.1,0-0.2,0.1-0.2s0.2,0,0.2,0.1c0.2,1.2-0.2,2.4-0.6,3.9
			c-0.7,2.3-1.6,5.2-0.6,9.4c1.6,6.8-0.3,13.1-0.3,13.2C993.5,293.3,993.5,293.3,993.4,293.3z"/>
	</g>
	<g>
		<path class="st2" d="M993.8,280.1c-0.1,0-0.2-0.1-0.2-0.1c0-0.1,0-0.2,0.1-0.2c1.3-0.2,2.9-1.4,3-2.9c0-0.2,0-0.4,0-0.6
			c0.1-1,0.1-2.2,0.8-2.8c0.3-0.3,0.8-0.4,1.4-0.3c0.1,0,0.2,0.1,0.1,0.2s-0.1,0.1-0.2,0.1c-0.5-0.1-0.9,0-1.2,0.2
			c-0.6,0.5-0.7,1.6-0.7,2.6c0,0.2,0,0.4,0,0.6C997,278.6,995.3,279.9,993.8,280.1C993.8,280.1,993.8,280.1,993.8,280.1z"/>
	</g>
	<g>
		<path class="st2" d="M992.8,280.1c-0.7,0-1.2-0.2-1.6-0.6c-0.7-0.6-1-1.6-1-2.9c0-0.1,0-0.3,0-0.4c0-0.9,0.1-2.3-0.5-3
			c-0.2-0.2-0.4-0.3-0.8-0.3c-0.1,0-0.2-0.1-0.2-0.2c0-0.1,0.1-0.2,0.2-0.2l0,0c0.4,0,0.7,0.2,1,0.4c0.7,0.7,0.6,2.2,0.5,3.2
			c0,0.2,0,0.3,0,0.4c0,1.2,0.3,2.1,0.8,2.6c0.5,0.4,1.2,0.6,2.1,0.4c0.1,0,0.2,0,0.2,0.1c0,0.1,0,0.2-0.1,0.2
			C993.3,280.1,993.1,280.1,992.8,280.1z"/>
	</g>
	<g>
		<path class="st2" d="M994.7,290.7c-0.2,0-0.4,0-0.6-0.1c-0.1,0-0.1-0.1-0.1-0.2c0-0.1,0.1-0.1,0.2-0.1c1,0.4,2.5-0.7,3-1.4
			c0.2-0.3,0.4-0.8,0.5-1.3c0.3-0.9,0.6-1.8,1.4-2c0.1,0,0.2,0,0.2,0.1c0,0.1,0,0.2-0.1,0.2c-0.7,0.2-0.9,1-1.2,1.8
			c-0.2,0.5-0.3,1-0.6,1.4C997,289.7,995.8,290.7,994.7,290.7z"/>
	</g>
	<g>
		<path class="st2" d="M993.3,290.6c-0.2,0-0.4,0-0.6-0.1c-1.2-0.4-2.2-1.9-2.5-2.8c-0.2-0.5-0.2-1.1-0.2-1.9c0-1.1-0.1-2.3-0.8-2.7
			c-0.1,0-0.1-0.1-0.1-0.2s0.1-0.1,0.2-0.1c0.9,0.5,1,1.8,1,2.9c0,0.7,0,1.3,0.2,1.7c0.3,0.8,1.3,2.2,2.4,2.6
			c0.4,0.1,0.8,0.1,1.2-0.1c0.1,0,0.2,0,0.2,0.1c0,0.1,0,0.2-0.1,0.2C993.9,290.5,993.6,290.6,993.3,290.6z"/>
	</g>
	<g>
		<path class="st13" d="M983,291.6c-1.2,3.1-1.8,6.7-1.8,10.6c0,11.2,5.6,20.4,12.5,20.4s12.5-9.1,12.5-20.4c0-3.9-0.7-7.5-1.8-10.6
			L983,291.6L983,291.6z"/>
		<path class="st4" d="M1005.6,296.4c-0.3-1.7-0.8-3.3-1.3-4.8H983c-0.6,1.5-1,3.1-1.3,4.8H1005.6z"/>
	</g>
</g>
<text transform="matrix(1 0 0 1 263.8002 614.6982)" class="st29 st30 st31">we are coming soon  </text>
<rect x="397" y="470.3" class="st32" width="257" height="24"/>
<rect x="403" y="529.3" class="st32" width="11" height="0"/>
</svg>
